<?xml version="1.0" encoding="utf-8"?>
<!-- Generator: Adobe Illustrator 25.0.1, SVG Export Plug-In . SVG Version: 6.00 Build 0)  -->
<svg version="1.1" id="Layer_1" xmlns="http://www.w3.org/2000/svg" xmlns:xlink="http://www.w3.org/1999/xlink" x="0px" y="0px"
	 viewBox="0 0 313.9 70.16" style="enable-background:new 0 0 313.9 70.16;" xml:space="preserve">
<style type="text/css">
	.st0{fill:#7FAC34;}
	.st1{fill:#80AC35;}
	.st2{fill:#80AC36;}
	.st3{fill:#7FAC33;}
</style>
<g>
	<path class="st0" d="M267.61,0c0.02,13.13,0.04,26.25,0.06,39.38c0.01,5.94-0.23,11.9,0.06,17.83c0.34,6.98-4.92,11.46-9.93,12.49
		c-0.4,0.08-0.96-0.13-1.17,0.47c-1.31,0-2.62,0-3.92,0c-0.46-0.69-1.25-0.57-1.9-0.76c-5.28-1.52-8.71-5.9-8.74-11.39
		c-0.04-9.66,0.31-19.33-0.11-28.97c-0.39-8.99,7.32-15.56,16.24-12c0-5.74,0-11.39,0-17.04C261.33,0,264.47,0,267.61,0z
		 M251.85,42.92c0,5.22-0.01,10.44,0,15.67c0,2.27,1.07,3.54,2.96,3.56c1.86,0.02,3.2-1.29,3.21-3.44c0.04-10.51,0.04-21.02,0-31.53
		c-0.01-2.17-1.33-3.38-3.27-3.31c-1.9,0.06-2.89,1.19-2.89,3.39C251.84,32.47,251.85,37.69,251.85,42.92z"/>
	<path class="st1" d="M166.39,70.16c-0.38-0.68-1.13-0.56-1.71-0.72c-4.65-1.23-9.39-5.65-8.97-11.79c0.15-2.21,0.12-4.44,0-6.65
		c-0.21-4.16,1.64-7.27,4.74-9.8c2.85-2.34,6.18-3.88,9.46-5.48c1.21-0.6,1.76-1.28,1.67-2.67c-0.13-2.02,0-4.05-0.04-6.07
		c-0.04-1.95-1.18-3.09-3.01-3.1c-1.85-0.02-3.03,1.11-3.06,3.04c-0.04,2.68-0.04,5.35,0,8.03c0.02,1.06-0.29,1.53-1.44,1.49
		c-2.35-0.08-4.7-0.05-7.05-0.01c-0.94,0.02-1.26-0.32-1.25-1.25c0.05-3-0.09-6.01,0.09-9c0.28-4.6,4.52-8.79,9.77-9.91
		c6.87-1.47,13.84,2.48,15.43,8.79c0.2,0.81,0.28,1.67,0.28,2.51c0.02,13.12-0.01,26.24,0.05,39.36c0.01,1.52-0.35,2.05-1.93,1.96
		c-3.23-0.17-6.47-0.21-9.48,1.3C168.74,70.16,167.56,70.16,166.39,70.16z M171.52,45.13c-2.94,1.29-5.49,2.79-5.91,5.95
		c-0.37,2.82-0.23,5.73-0.1,8.59c0.08,1.75,1.49,2.36,3.06,2.38c1.64,0.02,2.89-0.72,2.92-2.48
		C171.58,54.84,171.52,50.1,171.52,45.13z"/>
	<path class="st1" d="M218.57,70.16c-0.37-0.68-1.12-0.57-1.7-0.74c-5.66-1.65-8.94-5.95-8.95-11.8c0-2.15,0.08-4.31-0.02-6.46
		c-0.19-4.22,1.66-7.4,4.81-9.99c2.85-2.34,6.18-3.88,9.46-5.48c1.28-0.62,1.66-1.38,1.59-2.71c-0.1-1.95-0.01-3.91-0.03-5.87
		c-0.02-2.09-1.12-3.25-3.04-3.24c-1.87,0-3.02,1.21-3.05,3.29c-0.04,2.48-0.09,4.96,0.02,7.44c0.07,1.5-0.46,1.92-1.91,1.84
		c-1.95-0.12-3.92-0.12-5.88,0c-1.48,0.09-2.12-0.27-2-1.9c0.15-2.01,0.03-4.04,0.04-6.07c0.01-6.42,3.77-10.96,10.12-12.24
		c6.72-1.35,13.51,2.54,15.17,8.66c0.28,1.03,0.32,2.06,0.32,3.1c0.01,12.99-0.03,25.97,0.04,38.96c0.01,1.6-0.5,2-1.99,1.92
		c-3.23-0.17-6.47-0.15-9.49,1.31C220.92,70.16,219.74,70.16,218.57,70.16z M223.71,45.07c-2.83,1.37-5.31,2.79-5.88,5.84
		c-0.53,2.88-0.31,5.86-0.11,8.77c0.12,1.7,1.48,2.37,3.08,2.36c1.52,0,2.83-0.63,2.87-2.3C223.77,54.96,223.71,50.16,223.71,45.07z
		"/>
	<path class="st2" d="M298.99,70.16c-0.38-0.7-1.15-0.52-1.72-0.69c-5.72-1.7-8.93-5.9-8.93-11.82c0-12.8,0.04-25.6-0.05-38.4
		c-0.01-1.8,0.52-2.23,2.19-2.1c1.88,0.14,3.8,0.15,5.68,0c1.64-0.13,1.92,0.53,1.92,2c-0.05,12.86-0.03,25.73-0.03,38.59
		c0,0.65-0.02,1.31,0.08,1.95c0.29,1.73,1.5,2.4,3.1,2.35c1.6-0.06,2.79-0.8,2.89-2.57c0.08-1.43,0.03-2.87,0.03-4.31
		c0-12.02,0.03-24.03-0.03-36.05c-0.01-1.53,0.38-2.05,1.95-1.96c2.61,0.14,5.22,0.08,7.84,0.1c0,14.63,0,29.27,0,43.9
		c-0.47,0.13-0.47,0.59-0.6,0.92c-1.67,4.02-4.72,6.38-8.84,7.53c-0.51,0.14-1.22-0.13-1.54,0.56
		C301.61,70.16,300.3,70.16,298.99,70.16z"/>
	<path class="st2" d="M132.26,70.16c-0.45-0.72-1.26-0.55-1.91-0.75c-5.41-1.62-8.74-5.99-8.75-11.55c0-1.89,0.04-3.79-0.01-5.68
		c-0.03-0.92,0.27-1.27,1.22-1.24c2.42,0.05,4.84,0.07,7.25,0c1.12-0.03,1.29,0.48,1.27,1.41c-0.04,2.22-0.05,4.44,0,6.66
		c0.04,1.94,1.19,3.06,3.03,3.07c1.82,0,2.92-1.14,3.06-3.08c0.23-3.25-0.97-5.99-2.91-8.49c-1.85-2.38-4.04-4.44-6.24-6.48
		c-5.15-4.79-7.19-10.69-6.66-17.63c0.39-5.14,5.45-9.7,11.43-10.27c6.94-0.66,14.69,4.45,14.09,12.86c-0.12,1.62-0.06,3.26,0,4.89
		c0.04,1-0.27,1.4-1.33,1.37c-2.42-0.06-4.83-0.06-7.25,0c-0.98,0.02-1.22-0.38-1.2-1.27c0.04-2.28,0.04-4.57,0.01-6.85
		c-0.03-1.93-1.17-3.12-2.97-3.19c-1.79-0.07-3.13,1.06-3.2,2.98c-0.13,3.88,0.56,7.57,3.39,10.5c1.63,1.69,3.36,3.28,5.05,4.91
		c4.3,4.17,7.46,8.92,7.54,15.16c0.08,5.95-3.61,10.61-9.42,12.12c-0.52,0.13-1.22-0.1-1.55,0.58
		C134.87,70.16,133.56,70.16,132.26,70.16z"/>
	<path class="st3" d="M199.34,0c0.02,10.58,0.05,21.16,0.06,31.74c0.01,11.69-0.03,23.38,0.04,35.07c0.01,1.62-0.41,2.17-2.06,2.05
		c-2.08-0.14-4.18-0.07-6.27-0.02c-0.93,0.02-1.35-0.31-1.24-1.25c0.02-0.19,0-0.39,0-0.59c0-22.01,0-44.02,0-66.02
		c0-0.33,0.04-0.65,0.06-0.98C193.07,0,196.2,0,199.34,0z"/>
	<path class="st0" d="M10.31,4.31c2.55,0,5.1,0.06,7.64-0.02c1.37-0.04,2.27,0.41,3.15,1.5c8.79,10.77,20.02,16.31,34.07,15.34
		c11.47-0.79,20.57-6.24,27.78-14.98c1.12-1.35,2.24-1.91,3.98-1.87c5.09,0.11,10.19,0.03,15.29,0.04c2.26,0,2.6,0.58,1.56,2.53
		C92.74,27.57,69.98,40,46.65,37.5C26.21,35.31,10.92,24.94,0.72,7.1c-1.29-2.26-0.93-2.78,1.75-2.79C5.08,4.31,7.7,4.31,10.31,4.31
		z"/>
	<path class="st1" d="M52.14,69.44c-8.42,0-16.85-0.05-25.27,0.04c-1.84,0.02-2.41-0.6-2.37-2.35c0.08-3.91,0.06-7.83,0.01-11.74
		c-0.02-1.66,0.42-2.45,2.32-2.44c16.91,0.06,33.83,0.05,50.74,0.01c1.56,0,2.24,0.4,2.2,2.09c-0.09,4.11-0.1,8.22,0,12.33
		c0.04,1.66-0.58,2.11-2.17,2.1C69.12,69.41,60.63,69.44,52.14,69.44z"/>
</g>
</svg>
