<?xml version="1.0" encoding="utf-8"?>
<!-- Generator: Adobe Illustrator 25.0.1, SVG Export Plug-In . SVG Version: 6.00 Build 0)  -->
<svg version="1.1" xmlns="http://www.w3.org/2000/svg" xmlns:xlink="http://www.w3.org/1999/xlink" x="0px" y="0px"
	 viewBox="0 0 1218.9 850.39" style="enable-background:new 0 0 1218.9 850.39;" xml:space="preserve">
<style type="text/css">
	.st0{fill:#34B55F;}
	.st1{fill-rule:evenodd;clip-rule:evenodd;fill:#0A7258;}
	.st2{fill-rule:evenodd;clip-rule:evenodd;fill:#34B55F;}
	.st3{fill:#0A7258;}
	.st4{fill-rule:evenodd;clip-rule:evenodd;fill:#8ECD9B;}
	.st5{fill-rule:evenodd;clip-rule:evenodd;fill:#BADA91;}
	.st6{fill-rule:evenodd;clip-rule:evenodd;fill:#369F49;}
	.st7{fill:#C5E0B0;}
</style>
<g id="Ñëîé_2">
</g>
<g id="Ñëîé_1">
	<g>
		<path class="st0" d="M733.79,643.45c0.06-1.08-0.76-2-1.83-2.06c-1.08-0.06-2,0.76-2.06,1.83l0,0.01
			c-0.73,11.75,0.02,22.85,1.85,33.28c-26.29,13.15-26.16,34.48-21.85,47.26c12.52-6.38,23.1-21.94,23.88-37.64
			c2.63,10.68,6.32,20.57,10.59,29.63c-16.38,8.37-24.69,35.62-14.96,53.17c7.13-6.57,23.23-19.7,17.54-47.91
			c6.21,12.17,13.32,22.72,19.94,31.55c-20.52,10.4-10.57,40.8-5.66,46.01c7.48-9.21,12.3-27.61,9.34-41.19
			c3.4,4.35,6.59,8.22,9.36,11.57c2.84,3.44,5.23,6.33,6.91,8.61c0.99,15.56,6.72,26.23,27.89,31.76
			c1.92-6.57,0.23-33.4-25.24-34.73c-1.71-2.28-3.95-4.98-6.55-8.13c-2.6-3.15-5.59-6.76-8.77-10.81
			c11.11,8.85,27.1,10.84,40.4,7.91c-2.53-6.56-21.06-27.73-42.82-11.02c-6.37-8.33-13.32-18.32-19.54-29.88
			c13.31,12.26,31.38,9.87,46.44,3.28c-3.7-4.94-27.62-21.9-50.99-12.37c-4.93-10.58-9.06-22.29-11.56-35.06
			c9.38,15.47,29.52,22.95,47.22,18.13c-4.77-10.43-16.48-28.43-47.77-21.07c-1.75-10.07-2.47-20.77-1.76-32.09L733.79,643.45z"/>
		<path class="st1" d="M273.77,669.01l-19.43-27.6l2.55,38.09c-1.82,1.32-8.93,7.16-13.85,10.82
			c-5.04-11.42-10.44-26.34-10.44-26.34l-9.84,36.62c-21.73,12-49.72,21.99-96.58,22.53c-8-54.12,36.21-127.68,46.47-141.4
			l33.23,2.66l-27.51-11.28c6-9.87,12.2-19,18.13-28.81h179.73C342.4,599.56,302.89,646.35,273.77,669.01L273.77,669.01z"/>
		<path class="st0" d="M321.72,544.3c4.8,9.58,9.55,19.4,13.68,28.21c1.22,2.59,2.5,5.37,3.83,8.26c1.25,2.72,2.36,5.18,3.32,7.32
			l0,0c0.44,0.99,1.6,1.44,2.6,1.01c1-0.44,1.45-1.6,1.01-2.6l0,0l0-0.01l0,0c-1.06-2.38-2.18-4.85-3.33-7.37
			c-1.07-2.34-2.36-5.12-3.85-8.29c-3.88-8.27-8.32-17.47-12.84-26.53H321.72z M147.57,681.14c4.26,0.25,8.43,0.53,12.46,0.84
			c-12.87,14.12-24.27,26.93-33.55,37.81c-0.71,0.83-0.61,2.08,0.22,2.78c0.83,0.71,2.08,0.61,2.78-0.22
			c13.52-15.84,31.52-35.78,52.04-57.91c4.14,11.36,8.61,24.87,12.92,37.91c0.87,2.63,1.73,5.24,2.64,7.99
			c0.01,0.06,0.03,0.11,0.05,0.17l0,0c0.36,1.03,1.49,1.58,2.52,1.22c1.03-0.36,1.58-1.49,1.22-2.52l0,0
			c-0.01-0.03-0.02-0.07-0.04-0.1c-0.83-2.51-1.73-5.23-2.64-7.99c-4.56-13.81-9.3-28.14-13.65-39.93
			c4.26-4.58,8.61-9.25,13.06-13.99c4.26,11.6,9,25.5,13.34,38.62c0.9,2.72,1.79,5.43,2.67,8.12c0.85,2.61,1.69,5.2,2.51,7.74l0,0
			c0.32,0.99,1.36,1.58,2.38,1.31c1.05-0.28,1.68-1.36,1.4-2.41l0,0c-0.01-0.05-0.03-0.1-0.04-0.15c-0.79-2.45-1.63-5.03-2.5-7.71
			c-0.86-2.63-1.75-5.35-2.67-8.14c-4.59-13.86-9.62-28.6-14.07-40.59c7.36-7.84,14.94-15.87,22.67-24.01
			c5.27,14.33,11.62,32.64,16.69,48.1c1.04,3.18,2.04,6.26,2.97,9.2c0.91,2.87,1.76,5.58,2.51,8.09l0,0
			c0.3,1.01,1.36,1.61,2.39,1.34c1.05-0.28,1.68-1.36,1.4-2.41l0,0l-0.02-0.07h0c-0.74-2.45-1.59-5.18-2.53-8.13
			c-0.92-2.88-1.92-5.98-2.99-9.24c-5.3-16.17-11.99-35.44-17.41-50.06c3.08-3.24,6.17-6.49,9.29-9.75
			c0.15-0.12,0.29-0.26,0.41-0.42c5.38-5.64,10.81-11.31,16.27-17c7.65,14.41,17.53,33.87,25.14,49.6c1.59,3.29,3.04,6.32,4.3,9.01
			c1.28,2.73,2.46,5.29,3.49,7.6l0,0c0.44,0.99,1.6,1.44,2.6,1.01c1-0.44,1.45-1.6,1.01-2.6l0,0l0-0.01l0,0
			c-0.99-2.21-2.17-4.8-3.52-7.67c-1.37-2.92-2.82-5.96-4.32-9.05c-7.77-16.06-18-36.2-25.82-50.87
			c5.75-5.99,11.53-11.99,17.3-17.97c7.64,14.39,17.49,33.79,25.07,49.47c1.59,3.29,3.04,6.32,4.3,9.01
			c1.28,2.73,2.46,5.29,3.49,7.6l0,0c0.44,0.99,1.6,1.44,2.6,1.01c1-0.44,1.45-1.6,1.01-2.6l0,0l0-0.01l0,0
			c-0.99-2.21-2.17-4.8-3.52-7.67c-1.37-2.92-2.82-5.96-4.32-9.05c-7.74-16.01-17.94-36.07-25.75-50.74
			c6.92-7.17,13.83-14.3,20.68-21.36h-5.5c-2.44,2.52-4.89,5.05-7.36,7.59c-5.04-2.33-10.74-4.92-16.73-7.59h-9.74
			c8.41,3.7,16.59,7.37,23.57,10.59c-5.8,6-11.62,12.02-17.44,18.06c-15.02-6.96-33.88-15.21-49.38-21.62
			c-3.14-1.3-6.08-2.49-8.75-3.56c-2.86-1.14-5.44-2.15-7.66-3l-0.11-0.04c-1.02-0.39-2.16,0.12-2.55,1.15
			c-0.39,1.02,0.12,2.16,1.15,2.55l0.11,0.04c2.42,0.92,4.97,1.92,7.59,2.97c2.82,1.13,5.73,2.31,8.7,3.54
			c15.11,6.25,33.31,14.2,48,20.98c-8.76,9.11-17.5,18.22-26.12,27.25c-13.4-4.12-30.68-9.07-46.05-13.23
			c-3.32-0.9-6.31-1.7-8.92-2.38c-2.55-0.67-5.25-1.36-8.09-2.08l-0.09-0.02l-0.01,0c-1.06-0.26-2.13,0.38-2.39,1.44
			c-0.26,1.06,0.38,2.13,1.44,2.39l0.01,0l0.07,0.02c2.24,0.57,4.95,1.27,8.06,2.08c3.1,0.82,6.08,1.61,8.89,2.37
			c14.51,3.93,30.86,8.6,44.03,12.62c-2.6,2.73-5.18,5.44-7.75,8.15c-14.19-4.35-33.97-9.48-50.54-13.77
			c-3.48-0.9-6.83-1.77-9.94-2.58l-0.02,0c-1.06-0.28-2.14,0.35-2.41,1.41s0.35,2.14,1.41,2.41l0.02,0
			c3.12,0.81,6.46,1.68,9.94,2.58c15.8,4.09,34.54,8.95,48.5,13.16c-9.61,10.13-18.99,20.07-28,29.71
			c-8.61-2.63-17.97-4.95-27.65-7.36c-6.31-1.57-12.77-3.18-19.23-4.92l-0.09-0.03l-0.02,0c-1.05-0.3-2.14,0.31-2.44,1.36
			c-0.3,1.05,0.31,2.14,1.36,2.44l0.02,0c0.04,0.01,0.09,0.02,0.13,0.03c6.52,1.76,12.99,3.37,19.32,4.94
			c8.89,2.21,17.51,4.36,25.59,6.76c-8.94,9.58-17.49,18.81-25.52,27.59c-4.75-0.39-10.02-0.75-15.6-1.08
			c-5.54-0.33-11.4-0.63-17.32-0.92c-1.09-0.06-2.01,0.78-2.07,1.87c-0.06,1.09,0.78,2.01,1.87,2.07
			C136.08,680.5,141.89,680.8,147.57,681.14z"/>
		<path class="st1" d="M418.68,598.91c7.04,3.69,48.71,24.91,53.49,13.51c4.79-11.42-45-13.71-53.33-14.01
			c3.96-12.14,7.07-23,8.89-31.55c0.19-0.91-0.39-1.8-1.3-2c-0.91-0.19-1.8,0.39-2,1.3c-1.8,8.44-4.87,19.17-8.78,31.15
			c-5.87-4.69-45.94-36.19-49.78-24.28c-3.85,11.91,42.78,23.09,49.66,24.66c-1.59,4.88-3.33,9.97-5.17,15.2
			c-5.85-3.2-52.33-28.18-54.1-15.65c-1.76,12.5,47.5,15.59,53.99,15.94c-2.61,7.39-5.43,15.05-8.38,22.8
			c-3.84-2.13-51.96-28.52-53.77-15.68c-1.8,12.81,49.39,15.59,53.72,15.8c-2,5.24-4.06,10.51-6.15,15.76
			c-7.6-3.1-55.71-22.2-56.05-9.76c-0.34,12.35,47.64,10.63,55.86,10.24c-2.46,6.14-4.96,12.25-7.47,18.22
			c-4.76-1.49-56.56-17.38-55.75-4.52c0.8,12.8,50.58,5.48,55.67,4.69c-3.01,7.16-6.03,14.13-8.99,20.73
			c-9.6-2.82-52.66-14.83-51.69-2.86c0.95,11.76,41.09,5.59,51.25,3.84c-2.5,5.56-4.95,10.85-7.31,15.78l-0.24,0.51
			c-8.87-2.22-54.97-13.16-53.53-1.03c1.41,11.93,43.76,3.76,53.16,1.8c-3.3,6.86-6.42,12.97-9.23,18.05
			c-8.91-2.37-52.53-13.32-54.67-1.38c-2.12,11.81,43.89,4.07,54.22,2.19l-0.41,0.73c-2.93,5.2-5.49,9.17-7.52,11.57
			c-9.14,0.18-54.21,1.69-52.96,13.77c1.2,11.7,41.65-7.41,52.12-12.56c-0.15,0.53-0.04,1.12,0.33,1.56
			c-8.64,8.49-36.77,37.32-28.13,44.89c8.74,7.66,25.07-32.82,29.47-44.29c0.43-0.01,0.85-0.19,1.17-0.52l0,0
			c0.04-0.04,0.08-0.08,0.11-0.13c0.48-0.54,0.99-1.16,1.52-1.85c-1.4,9.52-7.21,53.53,4.82,54.3c12.42,0.8-1.89-47.46-4.23-55.09
			c1.83-2.52,3.93-5.9,6.23-9.98c0.26-0.47,0.53-0.95,0.8-1.43c2.56,9.53,14.64,52.01,25.98,48.06
			c11.59-4.03-19.7-41.92-25.55-48.85c2.77-5.05,5.82-11.03,9.03-17.7c4.13,8.96,23.21,48.83,33.73,43.06
			c10.72-5.88-26.22-37.8-33.36-43.84l0.19-0.39c2.47-5.17,5.05-10.73,7.66-16.58c4.83,7.98,28.51,45.93,38.39,38.93
			c10.01-7.11-30.58-34.64-38.08-39.61c2.91-6.52,5.88-13.37,8.85-20.42c4.18,6.11,32,45.97,41.75,38.17
			c9.84-7.87-35.45-34.94-41.59-38.55c2.53-6.02,5.05-12.17,7.52-18.35c4.39,5.35,35.73,42.84,44.74,34.1
			c9.08-8.8-38.47-31.55-44.61-34.43c2.03-5.1,4.03-10.21,5.98-15.3c7.28,5.56,43.46,32.42,50,22.2
			c6.58-10.28-40.56-20.91-49.75-22.87c2.9-7.6,5.67-15.13,8.24-22.4c6.41,4.92,43.69,32.86,50.34,22.46
			c6.69-10.44-42.12-21.26-50.17-22.96C415.36,608.87,417.09,603.79,418.68,598.91L418.68,598.91z"/>
		<path class="st1" d="M1009.39,544.3c23.68,10.2,44.39,20.37,54.67,27.28c-22.01,21.7-55.64,13.1-75.87,14.27
			c16.67,2.31,65.73,17.87,81.99,56.68c-36.35,14.91-85.06-18.73-103.97-30.99c12.66,12.67,86.84,82.5,84.19,117.18
			c-44.45-0.24-83.51-53.03-97.99-73.3c5.04,16.16,31.9,122.11,5.68,142.36c-27.67-10.71-42.7-111.1-42.97-149.2
			c-6.13,21.31-8.22,101.1-33.19,126.78c-18.92-27.83-8.49-97.67-8.49-97.67s-14.39,55.41-56.01,69.34
			c-12.27-35.86,30.77-91.49,38.23-102.55c-17.23,20.04-29.37,42.15-73.38,42.61c8.3-49.28,74.09-88.65,74.09-88.65
			s-52.39,25.84-89,14.49c7.54-20.64,36.88-45.57,69.62-68.64H1009.39z"/>
		<path class="st2" d="M494.42,544.3c2.3,23.56,7.65,44.23,24.75,67.27c15.64,21.08,37.4,44.07,21.69,58.33
			c-15.71,14.26-29.87-6.61-35.21,1.71c-5.34,8.32,25.71,46.32,5.34,59.48c-20.37,13.16-24.1-13.83-38.08-8.65
			c-13.98,5.18,2.34,60.45-40.15,60.8c-42.48,0.35,0.26-66.45-14.24-62.64c-14.49,3.8-39.41,7.76-32.28-18.21
			c7.13-25.97,54.04-44.22,46.18-53.69c-5.58-6.72-14.54,1.57-29.17-3.32c-14.62-4.9-2.31-25.7,17.82-37.28
			c21.71-16.79,36.28-31.02,49.66-63.8H494.42z"/>
		<path class="st3" d="M476.77,705.04c0.53,0.8,0.32,1.88-0.48,2.41c-0.79,0.53-1.86,0.32-2.4-0.46l0,0
			c-0.92-1.32-1.84-2.94-2.72-4.79c-0.88-1.82-1.73-3.86-2.53-6.04c-2.82-7.67-5.14-17.36-6.12-26.19
			c-2.75,10.28-5.59,19.97-8.45,28.75c-2.99,9.17-5.97,17.27-8.86,23.91l0,0l0,0c-0.37,0.89-1.4,1.3-2.28,0.93
			c-0.89-0.37-1.3-1.4-0.93-2.28l0.01-0.02l0.01-0.01l0,0c2.87-6.58,5.82-14.57,8.75-23.59c2.8-8.61,5.62-18.24,8.38-28.54
			c-8.89,11.37-20.24,18.49-26.95,22.7c-0.95,0.6-1.81,1.13-2.5,1.58c-0.81,0.52-1.89,0.29-2.41-0.52
			c-0.52-0.81-0.29-1.89,0.52-2.41c0.78-0.51,1.62-1.03,2.55-1.61c8.02-5.03,22.87-14.34,31.51-30.13
			c4.08-16.1,7.94-33.37,11.35-50.66c-1.7,2.29-3.54,4.48-5.45,6.56c-10.55,11.46-23.57,19.71-29.26,22.42
			c-0.87,0.41-1.91,0.04-2.33-0.83c-0.41-0.87-0.04-1.91,0.83-2.33c5.47-2.6,18-10.55,28.19-21.62c1.98-2.15,3.86-4.41,5.58-6.77
			c1.55-2.12,2.96-4.31,4.19-6.55c3.55-18.94,6.51-37.66,8.54-54.64h3.51c-2.01,16.84-4.92,35.39-8.42,54.17
			c0.05,0.19,0.08,0.38,0.07,0.59c-0.58,10.2,8.22,28.38,14.96,40.14c1.35,2.35,2.58,4.4,3.64,6.06c0.79,1.24,1.48,2.29,2.06,3.11
			c0.21,0.3,0.46,0.59,0.65,0.9c0.47,0.76,0.28,1.77-0.45,2.32c-0.76,0.56-1.83,0.41-2.41-0.32c-0.14-0.18-0.28-0.38-0.41-0.57
			c-0.65-0.9-1.46-2.12-2.39-3.59c-1.13-1.78-2.4-3.89-3.72-6.19c-5.1-8.89-11.32-21.39-14.05-31.77
			c-3.31,16.78-7.05,33.53-10.99,49.2c0.03,0.14,0.04,0.29,0.03,0.45c-0.59,10.39,2.37,25.33,6.35,36.17
			c0.77,2.1,1.58,4.03,2.39,5.73c0.8,1.67,1.63,3.13,2.44,4.3l0,0L476.77,705.04L476.77,705.04z"/>
		<path class="st1" d="M537.7,606.68c7.05-1.74,12.87-7.13,11.88-9.06c-1.39-4.77-4.29-8.58-12.75-3.65
			C528.38,598.89,533.21,605.73,537.7,606.68L537.7,606.68z M585.29,663.87c9.23-8.23,3.97-17.57-7.02-12.7
			c-10.99,4.87-9.27,5.84-10.42,10.78C568.24,675.04,576.06,672.1,585.29,663.87z M616.23,711.85c-2.25,0.62-4.9-0.51-4.68-4.26
			c0.18-3.05,7.54-17.18,10.48-15.85c1.84,0.83,6.56,2.96,7.4,4.85C630.88,699.85,619.68,710.91,616.23,711.85z M668.65,698.39
			c-11.56-17.18-35.18-9.15-17.27-1c7.07,3.22,6.53,1.88,12.11,4.79C668.67,704.17,670.32,700.88,668.65,698.39z M502.83,544.3
			c-32.76,16.51-52.63,51.34-18.05,103.23c-2.71-12.54,4.8-24.17,15.81-29.76c11.01-5.59,22.52-2.37,17.56,6.89
			c-4.96,9.25-27.38,27.55-20.81,50.83c6.57,23.28,43.09,49.33,43.09,49.33s-10.04-21.94,1.2-32.96
			c11.24-11.02,26.04-20.33,18.61,7.39c-7.43,27.72-19.68,32.82,3.14,54.52c22.81,21.69,43.1,24.71,43.1,24.71
			s-17.12-23.25-6.02-42.18c11.1-18.93,14.15-6.16,13.09,9.01c-1.05,15.17,4.28,29.15,17.01,38.8c7,5.31,32.12,21.83,36.19,23.57v0
			l0,0c2.72-3.5,16.71-30.1,20.28-38.14c6.48-14.6,4.38-29.42-3.87-42.19c-8.26-12.77-11.77-25.42,7.11-14.21
			c18.87,11.2,15.13,39.84,15.13,39.84s16.3-12.45,25.78-42.47c9.48-30.02-7.27-29.02-27.18-49.69
			c-19.9-20.67,1.11-19.23,16.28-15.02c15.17,4.21,16.98,28.27,16.98,28.27s19.38-40.47,13.87-64.02
			c-5.51-23.55-33.98-28.73-42.8-34.43c-8.81-5.7-0.3-14.09,12.04-14.52c12.34-0.43,24.54,6.12,28.23,18.41
			c1.14-13.7-0.26-25.37-3.55-35.2C631.77,544.3,604.25,544.3,502.83,544.3z"/>
		<path class="st4" d="M403.41,544.3c0.29,9.57-2.31,20.13-7.95,31.25c-16.03,31.6-48.53,37.48-43.47,58.2
			c5.06,20.72,12.29,40.21-22.13,56.67c-34.42,16.46-17.85,22.1-33.5,47.88c-15.66,25.78-48.74,6.92-28.8-22.42
			c19.94-29.34,11.72-32.94,5.89-46.93c-5.84-13.98-0.08-45.73,22.27-58.24c22.35-12.51,10.79-22.74,12.64-56.75
			c0.18-3.28,0.66-6.51,1.4-9.66H403.41z"/>
		<path class="st0" d="M362.2,544.3c0.32,9.53,1.47,20.29,2.6,27.85c0.38,2.51,0.74,4.64,1.07,6.24c0.33,1.62,0.66,2.82,0.94,3.47
			c0.02,0.04,0.03,0.08,0.05,0.12l0.01,0.02c0.34,0.7,1.18,0.99,1.88,0.65c0.7-0.34,0.99-1.18,0.65-1.88l-0.01-0.02l-0.03-0.06
			c-0.19-0.43-0.44-1.43-0.74-2.88c-0.34-1.64-0.7-3.72-1.05-6.09c-1.12-7.47-2.26-18.09-2.58-27.43H362.2z M346,544.3
			c-8.83,8.04-16.4,13.92-22.15,17.15c-0.68,0.38-0.92,1.23-0.54,1.91c0.38,0.68,1.23,0.92,1.91,0.54
			c6.45-3.62,14.99-10.36,24.94-19.6H346z M334.31,658.2c-0.2-0.11,0.19-0.29-0.02-1.11c-0.3-1.18-0.66-2.84-1.04-4.84
			c-1.98-10.37-4.6-29.82-3.53-39.74c9.7-22.98,19.82-46.73,29.16-68.21h-3.06c-9.25,21.28-19.23,44.73-28.81,67.4
			c-7.72,8.47-14.22,14.97-19.99,20.21c-5.84,5.3-10.93,9.3-15.8,12.75c-0.63,0.45-0.78,1.32-0.34,1.96
			c0.45,0.63,1.32,0.78,1.96,0.34c4.98-3.52,10.17-7.6,16.07-12.96c4.47-4.06,9.36-8.85,14.9-14.71
			c-10.13,24.05-19.64,46.82-27.1,64.69l-4.43,10.62c-0.3,0.72,0.04,1.54,0.76,1.84c0.72,0.3,1.54-0.04,1.84-0.76l4.43-10.62
			c7.53-18.03,17.14-41.06,27.38-65.35c0.22,10.61,2.21,24.74,3.8,33.07c0.4,2.08,0.77,3.79,1.08,5.01c0.23,0.89,0.48,1.6,0.75,2.11
			c0.1,0.3,0.31,0.57,0.6,0.74c0.02,0.01,0.04,0.03,0.07,0.04l0,0l0.06,0.03l0.01,0c0.7,0.34,1.54,0.04,1.87-0.66
			C335.25,659.36,334.98,658.55,334.31,658.2L334.31,658.2z"/>
		<path class="st5" d="M959.23,544.3c8.4,2.65,15.56,5.96,20.57,10.06c-21.59,17.59-59.47,6.61-77.71,5.93
			c14.76,3.49,74.17,30.82,85.44,67.03c-33.88,10.28-82.99-32.84-98.91-45.45c10.27,12.44,70.86,81.4,65.53,112.29
			c-39.85-4.01-70.39-54.69-81.65-74.1c3.14,14.93,18.2,112.25-7.04,128.18c-23.9-11.97-28.83-103.29-25.83-137.5
			c-7.32,18.59-15.99,89.99-40.58,110.89c-14.6-26.57,0.71-88.33,0.71-88.33s-17.63,48.47-56.15,57.42
			c-7.95-33.21,52.2-94.8,59.84-104.09c-22.73,15.58-49.34,39.96-88.85,36.62c11.65-43.5,57.66-54.12,64.94-58.36
			c-4.31,0-37.52,14.58-69.4,1.27c4.59-9.61,16.99-16.82,33.4-21.87H959.23z"/>
		<path class="st4" d="M815.63,591.95c13.31,17.85-10.28,9.98-13.58,14.5c-3.31,4.52,21.98,32.91,26.7,53.01
			c4.72,20.1-17.96-9.97-19.17,10.45c-1.21,20.42,14.17,44.13,5.4,59.91c-8.77,15.79-39.23-33.66-43.35-31.61
			c-4.12,2.05-0.92,22.52-11.26,24.84c-10.34,2.32-24.45-62.39-30.07-56.15c-5.62,6.24-5.98,32.96-18.01,6.5
			c-12.03-26.46-16.6-104.2-4.11-125.33c0.86-1.45,1.85-2.7,2.96-3.77h36.42C775.21,555.22,807.41,580.93,815.63,591.95
			L815.63,591.95z"/>
		<path class="st0" d="M775.27,594.67c0.91,0.38,1.34,1.43,0.95,2.33c-0.38,0.91-1.43,1.34-2.33,0.95l-31.78-13.31
			c9.59,15.53,19.11,31.61,27.4,46.78l27.85,15.16c0.86,0.47,1.18,1.56,0.71,2.42c-0.47,0.86-1.56,1.18-2.42,0.71l-23.03-12.53
			c9.85,18.45,17.59,35.21,21.03,47.51c0.26,0.95-0.29,1.93-1.23,2.19c-0.95,0.26-1.93-0.29-2.19-1.23
			c-3.45-12.34-11.35-29.32-21.39-48.02l-4.29,31.77c-0.13,0.97-1.03,1.65-2,1.52c-0.97-0.13-1.65-1.03-1.52-2l4.93-36.53l0-0.06
			c-8.11-14.79-17.39-30.45-26.75-45.61l-1.79,38.1c-0.05,0.98-0.88,1.74-1.86,1.7c-0.98-0.05-1.74-0.88-1.7-1.86l2.03-43.28
			c-7.44-11.93-14.84-23.44-21.67-33.84c-0.71-1.08-1.42-2.15-2.11-3.21h4.27l0.82,1.25c6.83,10.41,14.24,21.92,21.68,33.87
			L775.27,594.67z"/>
		<path class="st4" d="M236.74,544.3c3.72,9.36,6.91,21.76,4.49,33.37c-4.26,20.37-28.14,6.41-17.44-33.37H236.74z M197.2,544.3
			c5.01,7.19,14.85,23.59,13.32,39.69c-1.99,20.91-29.6,6.69-17.19-39.69H197.2z M188.55,544.3c-8.36,4.24-16.41,9.12-24.04,14.45
			c4.34,4.65,17.82,20.45,18.06,37.34c0.28,19.76-27.21,9.08-19.85-36.08c-8.28,5.9-16.05,12.31-23.16,18.94
			c4.27,3.64,16.54,15.14,18.38,28.79c2.19,16.19-21.33,10.24-19.98-27.29c-5.34,5.07-10.31,10.26-14.81,15.43
			c-0.88,1.01-1.75,2.03-2.6,3.04c3.9,2.47,14.75,10.12,17.75,20.62c3.59,12.55-15.65,10.57-18.94-19.18
			c-4.34,5.28-8.2,10.51-11.5,15.57c-0.4,0.61-0.79,1.22-1.17,1.83c3.68,1.79,13.75,7.35,17.36,16.11
			c4.34,10.51-12.47,10.71-18.28-14.62c-2.94,4.79-5.33,9.36-7.12,13.61c2.46,1.63,12.37,8.63,15.08,17.43
			c3.05,9.88-12.55,7.4-15.49-16.44l-0.07,0.18l0,0l0,0.01l0,0.01c-0.24,0.58-0.79,0.93-1.38,0.93
			c1.4,23.98-13.52,28.05-12.29,17.78c1.02-8.52,8.48-15.82,11.21-18.23c-0.4-0.42-0.54-1.04-0.31-1.61l0,0
			c0.08-0.19,0.15-0.38,0.23-0.56c-22.68,8.61-31.91-4.29-21.69-6.17c8.93-1.64,19.32,3.84,22.02,5.38
			c1.89-4.45,4.4-9.23,7.48-14.22c-25.85,3.53-31.62-12.32-20.23-11.96c9.41,0.3,18.1,7.68,21.12,10.53
			c0.34-0.54,0.69-1.08,1.05-1.63c3.4-5.21,7.39-10.62,11.91-16.09c-31.02,1.6-36.06-17.7-22.95-15.93
			c11.59,1.56,21.26,12.52,23.51,15.26c1-1.2,2.02-2.4,3.07-3.6c4.57-5.25,9.6-10.51,15.03-15.65
			c-38.01,1.67-44.14-22.07-27.86-19.9c14.08,1.87,25.9,14.82,29.15,18.69c7.46-6.97,15.64-13.71,24.38-19.9
			c-46.37,0.33-52.68-28.81-33.12-25.36c17.41,3.07,31.32,20.27,34.46,24.43c6.15-4.29,12.58-8.3,19.21-11.92H188.55z"/>
		<path class="st2" d="M717.88,544.3c7.45,1.97,13.84,4.59,18.03,8.02c-14.77,12.03-40.68,4.52-53.15,4.06
			c10.09,2.39,42.58,16.67,50.28,41.43c-23.17,7.03-48.61-18.05-59.5-26.67c7.03,8.51,28.62,49.22,24.97,70.34
			c-23.24-4.53-33.2-33.18-40.02-48.24c2.15,10.21,16.47,80.8-0.8,91.69c-16.35-8.19-19.72-70.65-17.67-94.05
			c-5,12.72-10.94,61.55-27.75,75.85c-9.98-18.18,0.49-60.42,0.49-60.42s-12.06,33.16-38.41,39.28
			c-5.44-22.72,35.71-64.85,40.93-71.2c-15.55,10.65-33.75,27.33-60.78,25.05c7.97-29.75,46.46-40.99,51.44-43.88
			c-2.95,0-32.69,13.94-54.49,4.84c3.5-7.34,13.66-12.62,26.86-16.1H717.88z"/>
		<path class="st5" d="M647.24,545.3c0,0,1.87,37.49,38.44,50.7c36.57,13.21,73.55-10.72,65.65-28.52
			c-7.9-17.79-33.86-13.47-59.94-12.24C665.31,556.49,650.8,547.62,647.24,545.3L647.24,545.3z"/>
		<path class="st6" d="M712.94,578.02c-0.7,0.14-1.95,0.14-2.66,0.16c-2.05,0.05-4.12,0-6.17-0.11c-6.25-0.33-12.56-1.27-18.61-2.85
			c-8.28-2.17-16.35-5.6-23.26-10.7c-6.76-4.99-11.99-11.26-15.48-18.83c-0.04-0.08-0.53-1.3-0.57-1.39h2.16
			c0.03,0.07,0.52,1.28,0.55,1.35c3.36,6.94,8.27,12.71,14.48,17.3c6.71,4.95,14.57,8.27,22.61,10.38
			c5.82,1.53,11.87,2.5,17.87,2.89c1.36,0.09,7.14,0.41,8.37-0.03c0.51-0.18,1.07,0.09,1.25,0.59
			C713.67,577.29,713.42,577.83,712.94,578.02L712.94,578.02z"/>
		<path class="st0" d="M570.4,736.63c0.38,1.06-0.17,2.23-1.23,2.61c-1.06,0.38-2.23-0.17-2.61-1.23
			c-0.03-0.08-7.6-20.73-10.29-42.12c-10.27,54.74,1.95,98.13,2,98.31c0.29,1.09-0.35,2.21-1.44,2.5c-1.09,0.29-2.21-0.35-2.5-1.44
			c-0.04-0.15-8.23-29.2-5.78-69.87c-9.58,12.81-15.58,24.86-18.96,33.25c-0.72,1.78-1.33,3.44-1.83,4.91
			c-0.51,1.48-0.88,2.7-1.14,3.64l0,0c-0.29,1.08-1.4,1.72-2.49,1.44c-1.09-0.29-1.74-1.4-1.45-2.49l0-0.01l0-0.02
			c0.3-1.11,0.7-2.42,1.2-3.88c0.5-1.47,1.14-3.19,1.92-5.12c3.9-9.69,11.2-24.14,23.29-39.07c0.97-10.72,2.69-22.12,5.5-33.94
			c-0.36,0.27-0.73,0.54-1.1,0.82c-1.83,1.38-3.76,2.86-5.69,4.38c-9.97,7.8-20.76,16.89-23.1,20.09c-0.67,0.91-1.94,1.11-2.85,0.44
			c-0.91-0.67-1.11-1.94-0.44-2.85c2.56-3.5,13.67-12.91,23.88-20.89c1.99-1.55,3.93-3.05,5.75-4.42c1.87-1.41,3.61-2.69,5.13-3.79
			c5.88-21.97,8.69-27.87,20.46-49.93c0.64-0.93,1.9-1.17,2.83-0.53c0.93,0.64,1.17,1.9,0.53,2.83
			c-5.04,9.45-8.64,16.45-11.65,23.54c0.51,2.03,1.19,4.67,1.5,5.85c3.15,12.27,7.16,25.79,9.16,29.21
			c0.57,0.97,0.23,2.23-0.74,2.79c-0.98,0.57-2.23,0.23-2.79-0.74c-2.18-3.74-6.35-17.7-9.58-30.25l-0.1-0.39
			c-2.23,6.06-4.21,12.71-6.42,21.37C559.27,706.26,570.37,736.54,570.4,736.63L570.4,736.63z"/>
		<path class="st5" d="M572.21,750.9c-4.74,0.34-8.85-3.23-9.19-7.97c-0.34-4.74,3.23-8.85,7.97-9.19c4.74-0.34,8.85,3.23,9.19,7.97
			C580.51,746.45,576.95,750.57,572.21,750.9L572.21,750.9z"/>
		<path class="st5" d="M559.48,808.35c-4.74,0.34-8.85-3.23-9.19-7.97c-0.34-4.74,3.23-8.85,7.97-9.19
			c4.74-0.34,8.85,3.23,9.18,7.97C567.78,803.9,564.22,808.02,559.48,808.35L559.48,808.35z"/>
		<path class="st5" d="M522.82,775.63c-4.74,0.34-8.85-3.23-9.18-7.97c-0.34-4.74,3.23-8.85,7.97-9.19
			c4.74-0.34,8.85,3.23,9.19,7.97C531.13,771.18,527.56,775.3,522.82,775.63L522.82,775.63z"/>
		<path class="st5" d="M520.68,720.16c-4.74,0.34-8.85-3.23-9.19-7.97c-0.34-4.74,3.23-8.85,7.97-9.18
			c4.74-0.34,8.85,3.23,9.19,7.97C528.98,715.71,525.41,719.83,520.68,720.16L520.68,720.16z"/>
		<path class="st5" d="M579.1,700.1c-4.74,0.34-8.85-3.23-9.19-7.97c-0.34-4.74,3.23-8.85,7.97-9.19c4.74-0.34,8.85,3.23,9.18,7.97
			C587.4,695.65,583.84,699.76,579.1,700.1L579.1,700.1z"/>
		<path class="st2" d="M1000.28,555.95c5.16-4.97,10.08-8.79,15.05-11.65h69.87c26.06,8.05,33.82,21.57,27.78,25.5
			c-6.8,4.43-46.2-14.33-47.78-5.49c-1.58,8.83,20.63,13.55,44.56,16.22c23.93,2.66,37.45,14.99,34.58,23.18
			c-2.87,8.2-48.61-15.52-43.27-0.44c5.34,15.08,56.02,24.81,52.53,42.32c-3.48,17.51-45.8-17.53-50.92-11.26
			c-5.12,6.28,47.89,46.83,37.09,60.1c-10.8,13.27-50.39-51.07-59.3-49.68c-8.91,1.39,20.59,45.3,9.21,48.86
			c-11.39,3.56-22.79-25.94-27.16-38.13c-4.37-12.19-6.75-34.02-16.95-33.27c-10.19,0.75,18.69,53.97,8.1,55.93
			c-10.59,1.96-20.86-23.78-26.45-42.79c-5.59-19.01-3.29-28.09-7.47-30.16c-4.18-2.08-10.36,4.83-7.47,21.78
			c2.89,16.95,12.93,24.54,6.66,30.93c-6.28,6.39-23.78-17.92-28.2-34.64C986.34,606.51,978.42,577,1000.28,555.95L1000.28,555.95z"
			/>
		<path class="st7" d="M960.67,546.98c-0.61-0.07-1.04-0.61-0.98-1.22c0.07-0.61,0.61-1.05,1.22-0.98l0.01,0l0.01,0l0,0
			c6.55,0.75,16.63,1.78,22.85,3.51c6.21,1.72,12.23,3.88,18.05,6.39c29.85,12.89,54.02,34.95,68.37,53.74
			c0.37,0.49,0.28,1.18-0.21,1.56c-0.49,0.37-1.18,0.28-1.56-0.21c-14.17-18.55-38.02-40.34-67.48-53.05
			c-5.72-2.47-11.65-4.6-17.77-6.29C977.07,548.73,967.11,547.72,960.67,546.98L960.67,546.98z"/>
		<path class="st5" d="M536.18,545.74c-7.23-1.81-33.74-12.42-41.49-14.77c-17.75-5.38-22.26,5.47-13.08,11.99
			c-29.08-5.23-58.3-12.18-82.65-1.28c-10.91,4.88-18.63,21.39-0.45,22.64c-13.61,3.82-58.34,31.58-39.13,59.75
			c19.21,28.17,45.44-11.27,45.44-11.27c-3.93,15.91,13.8,9.49,21.97,3.41c11.73-8.74,13.78-21.73,29.94-33.45
			c0.92,18.27,18.53,16.51,26.78,4.57C492.77,573.91,506.5,556.45,536.18,545.74L536.18,545.74z"/>
		<path class="st0" d="M493.58,538.63c-0.49-0.17-1.03,0.09-1.2,0.58c-0.17,0.49,0.09,1.03,0.58,1.2c1.13,0.4,2.37,0.96,3.8,1.61
			c3.33,1.51,7.67,3.48,13.75,4.92c-2.29,0.28-4.6,0.59-6.93,0.92c-8.04,1.15-16.31,2.62-24.6,4.49c-0.02,0-0.04-0.01-0.06-0.01
			c-15.58-1.87-31.61-0.76-46.61,2.05c-2.92,0.55-5.8,1.16-8.62,1.82c-2.76,0.65-5.52,1.36-8.26,2.13c-0.02,0-0.04,0.01-0.06,0.01
			l-0.01,0c-0.5,0.14-0.8,0.65-0.66,1.15c0.14,0.5,0.65,0.8,1.15,0.66l0.01,0c0.02-0.01,0.04-0.01,0.07-0.02
			c2.63-0.74,5.36-1.44,8.19-2.1c2.81-0.66,5.66-1.26,8.54-1.8c13.12-2.45,27.01-3.6,40.68-2.55c-14.25,3.52-28.4,8.25-41.33,14.51
			c-0.04,0-0.08,0.01-0.12,0.02c-8.76,1.98-15.2,3.54-21.02,5.2c-5.83,1.67-11.03,3.43-17.3,5.81c-0.48,0.18-0.73,0.73-0.54,1.21
			c0.18,0.48,0.73,0.73,1.21,0.54c6.22-2.36,11.37-4.11,17.14-5.76c4.11-1.17,8.53-2.3,13.88-3.56c-12.86,7.02-24.2,15.74-32.8,26.5
			c-0.32,0.41-0.26,1,0.15,1.32c0.41,0.32,1,0.26,1.32-0.15c8.78-10.99,20.49-19.81,33.77-26.86c-1.07,1.18-2.09,2.36-3.07,3.51
			c-5.44,6.41-9.74,12.57-12.18,17.23c-0.24,0.46-0.06,1.03,0.4,1.27c0.46,0.24,1.03,0.06,1.27-0.4c2.37-4.55,6.6-10.58,11.94-16.88
			c1.05-1.24,2.13-2.48,3.25-3.71c1.05-1.16,2.14-2.33,3.25-3.49c12.23-5.94,25.58-10.5,39.09-13.96c-2.83,1.63-6.28,3.75-9.96,6.33
			c-7.94,5.56-16.98,13.26-23.35,22.74c-0.29,0.43-0.17,1.01,0.26,1.3c0.43,0.29,1.01,0.17,1.3-0.26
			c6.22-9.26,15.08-16.79,22.87-22.25c7.36-5.16,13.77-8.46,16.1-9.61c8.42-1.91,16.83-3.42,24.99-4.59
			c0.52-0.07,1.03-0.15,1.55-0.22c-7.42,2.88-17.13,7.62-22.95,15.83c-0.3,0.42-0.2,1.01,0.22,1.31c0.42,0.3,1.01,0.2,1.31-0.22
			c7.14-10.07,20.65-14.76,27.68-17.18c0.77-0.24,1.54-0.53,2.29-0.81c4.24-0.48,8.38-0.87,12.4-1.18
			c6.98-0.54,13.53-0.85,19.46-0.96c0.63-0.01,1.4-0.08,1.39-0.96c-0.01-0.79-0.68-0.93-1.28-0.92c-6.04,0.12-12.68,0.42-19.71,0.97
			c-3.13,0.24-6.12,0.51-9.4,0.85c-0.7,0.07-0.88-0.15-1.46-0.24c-8.3-1.36-13.79-3.85-17.8-5.67
			C496.03,539.63,494.73,539.04,493.58,538.63L493.58,538.63z"/>
		<path class="st0" d="M888.14,205.59c-0.06,1.08-0.98,1.9-2.05,1.85c-1.08-0.06-1.9-0.98-1.85-2.05l0-0.01
			c0.59-11.76,2.58-22.71,5.56-32.86c-24.65-16-22.14-37.19-16.43-49.41c11.73,7.74,20.51,24.38,19.52,40.07
			c3.8-10.32,8.59-19.73,13.83-28.26c-15.34-10.15-20.55-38.16-8.92-54.51c6.36,7.32,20.88,22.17,12.08,49.57
			c7.54-11.4,15.78-21.09,23.35-29.12c-19.23-12.63-5.94-41.73-0.48-46.35c6.4,9.99,9.14,28.81,4.68,41.98
			c3.87-3.94,7.47-7.43,10.6-10.45c3.21-3.1,5.91-5.71,7.83-7.79c2.72-15.35,9.61-25.32,31.27-28.44
			c1.18,6.75-3.51,33.21-28.96,31.69c-1.96,2.07-4.48,4.51-7.42,7.35c-2.94,2.84-6.31,6.1-9.92,9.77
			c12.03-7.55,28.14-7.74,41.03-3.34c-3.25,6.23-24.03,25.2-43.78,6.16c-7.26,7.56-15.29,16.72-22.76,27.51
			c14.6-10.7,32.29-6.29,46.51,1.93c-4.23,4.49-29.9,18.67-52.06,6.59c-6.08,9.96-11.5,21.14-15.41,33.55
			c11.05-14.32,31.91-19.51,48.95-12.73c-5.91,9.83-19.56,26.41-49.82,15.6c-2.86,9.81-4.78,20.37-5.34,31.69L888.14,205.59z"/>
		<path class="st0" d="M195.49,283.21c0.98,0.44,1.42,1.6,0.98,2.58c-0.44,0.98-1.6,1.42-2.58,0.98l-0.01,0
			c-10.75-4.81-20.23-10.64-28.61-17.1c-23.86,17.17-42.69,7.14-52-2.61c11.47-8.12,30.16-10.26,44.42-3.65
			c-8.23-7.29-15.27-15.16-21.32-23.14c-15.02,10.61-43.02,5.31-54.03-11.46c9.13-3.27,28.24-11.42,50.57,6.73
			c-7.89-11.16-13.93-22.35-18.67-32.32c-18.74,13.34-41.04-9.6-43.36-16.37c11.63-2.34,30.17,1.94,40.81,10.87
			c-2.27-5.03-4.21-9.65-5.89-13.66c-1.72-4.11-3.18-7.58-4.42-10.12c-13.32-8.1-20.1-18.14-15.16-39.46
			c6.72,1.35,29.68,15.32,19.02,38.49c1.22,2.58,2.58,5.81,4.16,9.58c1.58,3.77,3.39,8.09,5.5,12.79
			c-2.67-13.95,3-29.03,11.78-39.45c4.63,5.29,14.77,31.53-10.14,43.04c4.41,9.51,10.03,20.31,17.38,31.18
			c-4.67-17.49,5.85-32.37,18.67-42.64c2.65,5.57,6.55,34.64-12.75,50.9c7.08,9.28,15.53,18.38,25.67,26.53
			c-9.34-15.49-6.6-36.81,5.89-50.24c7.02,9.07,17.52,27.8-3.54,52.09c8.1,6.23,17.25,11.84,27.59,16.47L195.49,283.21z"/>
		<path class="st1" d="M272.38,258.64c7.04-3.69,48.71-24.91,53.49-13.51c4.79,11.42-45,13.7-53.33,14.01
			c3.96,12.14,7.07,23,8.89,31.55c0.19,0.91-0.39,1.8-1.3,2c-0.91,0.19-1.8-0.39-2-1.3c-1.8-8.44-4.87-19.17-8.77-31.15
			c-5.87,4.69-45.94,36.19-49.78,24.28c-3.85-11.91,42.78-23.08,49.66-24.66c-1.59-4.88-3.33-9.97-5.17-15.2
			c-5.85,3.2-52.33,28.18-54.1,15.65c-1.76-12.5,47.5-15.59,53.99-15.94c-2.61-7.39-5.43-15.05-8.38-22.8
			c-3.84,2.13-51.96,28.52-53.77,15.68c-1.8-12.81,49.39-15.59,53.72-15.8c-2-5.24-4.06-10.51-6.15-15.76
			c-7.6,3.1-55.71,22.2-56.05,9.76c-0.34-12.35,47.64-10.63,55.86-10.24c-2.46-6.14-4.96-12.25-7.47-18.22
			c-4.76,1.49-56.56,17.38-55.75,4.52c0.8-12.8,50.58-5.48,55.67-4.69c-3.01-7.16-6.03-14.13-8.99-20.73
			c-9.6,2.82-52.66,14.83-51.69,2.86c0.95-11.76,41.09-5.59,51.25-3.84c-2.5-5.56-4.95-10.85-7.31-15.78l-0.24-0.51
			c-8.87,2.22-54.97,13.16-53.53,1.03c1.41-11.93,43.76-3.76,53.16-1.8c-3.31-6.86-6.42-12.97-9.23-18.05
			c-8.91,2.37-52.53,13.32-54.67,1.38c-2.12-11.81,43.89-4.07,54.22-2.19l-0.41-0.73c-2.93-5.2-5.49-9.17-7.52-11.57
			c-9.14-0.18-54.21-1.69-52.96-13.77c1.2-11.7,41.65,7.41,52.12,12.56c-0.15-0.53-0.04-1.12,0.33-1.56
			c-8.64-8.49-36.77-37.32-28.13-44.89c8.74-7.66,25.07,32.82,29.47,44.29c0.43,0.01,0.85,0.19,1.17,0.52l0,0
			c0.04,0.04,0.08,0.08,0.11,0.13c0.48,0.54,0.99,1.16,1.52,1.85c-1.4-9.52-7.21-53.53,4.82-54.3c12.42-0.8-1.89,47.46-4.23,55.09
			c1.83,2.52,3.93,5.9,6.23,9.98c0.26,0.47,0.53,0.95,0.8,1.43c2.56-9.53,14.64-52.01,25.98-48.06
			c11.59,4.03-19.7,41.92-25.55,48.85c2.77,5.05,5.82,11.03,9.03,17.7c4.12-8.96,23.21-48.83,33.73-43.06
			c10.72,5.88-26.22,37.8-33.36,43.84l0.19,0.39c2.47,5.17,5.05,10.73,7.66,16.58c4.83-7.98,28.51-45.93,38.39-38.93
			c10.01,7.11-30.58,34.64-38.08,39.61c2.91,6.52,5.88,13.37,8.85,20.42c4.18-6.11,32-45.97,41.75-38.17
			c9.84,7.87-35.45,34.94-41.59,38.55c2.53,6.02,5.05,12.17,7.52,18.35c4.39-5.35,35.73-42.84,44.74-34.1
			c9.08,8.8-38.47,31.55-44.61,34.43c2.03,5.09,4.03,10.21,5.98,15.3c7.28-5.56,43.46-32.42,50-22.2
			c6.58,10.28-40.56,20.91-49.75,22.87c2.9,7.6,5.67,15.13,8.24,22.4c6.41-4.92,43.69-32.86,50.34-22.46
			c6.69,10.44-42.12,21.26-50.17,22.96C269.05,248.68,270.78,253.76,272.38,258.64L272.38,258.64z"/>
		<path class="st2" d="M389.62,208.33l-14.45,2.18l5.13-17.39c-1.05-1.99-4.83-10.38-7.61-15.84c-9.59,8-21.04,18.98-21.04,18.98
			l7.43-37.18c-14.15-20.39-34.81-41.76-76.56-63.03c-31.18,44.96-24.18,130.49-21.08,147.33l30.96,12.36l-29.66-2.09
			c1.15,13.33,3,25.87,3.88,39.32l39.68,8.08l-37.74,2.79l1.53,12.05l18.04,2.46l-16.29,5.26c0.69,1.92,1.51,4.1,2.44,6.49h148.54
			C415.31,279.93,402.54,235.08,389.62,208.33L389.62,208.33z"/>
		<path class="st3" d="M395.29,330.08c2.72-2.13,5.37-4.22,7.91-6.24c2.24-1.79,4.62-3.7,7.09-5.7c2.33-1.88,4.41-3.59,6.22-5.09
			l0,0c0.83-0.69,2.08-0.58,2.77,0.25c0.7,0.84,0.59,2.08-0.24,2.78l0,0l-0.01,0.01l0,0c-2.01,1.66-4.11,3.38-6.25,5.12
			c-2,1.62-4.39,3.54-7.13,5.72c-1.3,1.04-2.63,2.09-3.99,3.16L395.29,330.08z M283.05,143.16c3.93,1.66,7.79,3.27,11.54,4.77
			c-5.27-18.36-9.8-34.9-13.3-48.77c-0.27-1.06,0.37-2.13,1.43-2.4c1.06-0.27,2.13,0.37,2.4,1.43c5.09,20.2,12.38,46.05,20.95,74.99
			c8.75-8.34,18.75-18.47,28.4-28.25c1.94-1.97,3.88-3.93,5.92-5.99c0.04-0.04,0.08-0.09,0.12-0.13l0,0
			c0.78-0.76,2.03-0.75,2.8,0.03c0.76,0.78,0.75,2.03-0.03,2.8l0,0c-0.02,0.02-0.05,0.05-0.08,0.07c-1.86,1.88-3.87,3.92-5.91,5.99
			c-10.22,10.35-20.81,21.1-29.95,29.73c1.78,6,3.62,12.11,5.5,18.34c8.96-8.51,19.38-18.86,29.09-28.69
			c2.01-2.04,4.02-4.08,5.99-6.09c1.92-1.96,3.82-3.91,5.68-5.83l0,0c0.73-0.75,1.92-0.81,2.72-0.12c0.82,0.72,0.91,1.96,0.19,2.78
			l0,0c-0.03,0.04-0.07,0.08-0.11,0.11c-1.79,1.85-3.69,3.79-5.67,5.8c-1.93,1.97-3.94,4.02-6.01,6.11
			c-10.26,10.39-21.31,21.36-30.61,30.14c3.12,10.3,6.35,20.85,9.67,31.57c11.08-10.51,24.89-24.1,36.29-35.71
			c2.34-2.38,4.61-4.71,6.74-6.93c2.09-2.17,4.05-4.23,5.84-6.14l0,0c0.72-0.77,1.93-0.84,2.74-0.14c0.82,0.72,0.91,1.96,0.19,2.78
			l0,0l-0.05,0.05l0,0c-1.75,1.87-3.73,3.94-5.88,6.17c-2.1,2.18-4.37,4.51-6.78,6.96c-11.92,12.14-26.47,26.44-37.81,37.14
			c1.32,4.27,2.65,8.55,4,12.86c0.08,0.18,0.14,0.36,0.18,0.56c2.32,7.44,4.67,14.94,7.04,22.45c13.25-9.52,30.73-22.58,44.53-33.3
			c2.89-2.24,5.53-4.32,7.85-6.17c2.36-1.88,4.55-3.65,6.5-5.27l0,0c0.84-0.69,2.08-0.58,2.77,0.25c0.7,0.83,0.59,2.08-0.24,2.78
			l0,0l-0.01,0.01l0,0c-1.86,1.54-4.08,3.33-6.56,5.31c-2.52,2.01-5.17,4.09-7.88,6.2c-14.08,10.94-32.19,24.45-45.71,34.14
			c2.5,7.92,5.01,15.86,7.53,23.78c13.23-9.51,30.66-22.53,44.42-33.22c2.89-2.24,5.53-4.32,7.85-6.17c2.36-1.88,4.55-3.65,6.5-5.27
			l0,0c0.84-0.7,2.08-0.58,2.77,0.25c0.7,0.84,0.59,2.08-0.24,2.78l0,0l-0.01,0.01l0,0c-1.86,1.54-4.08,3.33-6.56,5.31
			c-2.52,2.01-5.17,4.09-7.88,6.2c-14.04,10.91-32.08,24.37-45.59,34.05c2.86,8.97,5.72,17.91,8.56,26.76l-4.15,0
			c-1.16-3.63-2.33-7.28-3.51-10.95c-16.63-0.42-39.64-1.47-57.78-2.66c-3.63-0.24-7-0.48-10.02-0.71
			c-3.21-0.25-6.05-0.49-8.44-0.72l-0.12-0.01c-1.09-0.1-1.88-1.07-1.78-2.16c0.1-1.09,1.07-1.88,2.16-1.78l0.12,0.01
			c2.57,0.25,5.38,0.49,8.36,0.72c3.16,0.24,6.51,0.48,9.97,0.71c17.69,1.16,39.88,2.18,56.25,2.62
			c-2.54-7.95-5.08-15.93-7.62-23.92c-16.55-0.43-37.11-1.4-53.84-2.53c-3.39-0.23-6.55-0.46-9.42-0.69
			c-3.07-0.24-5.83-0.48-8.2-0.71l-0.12-0.01c-1.09-0.1-1.88-1.07-1.78-2.16c0.11-1.09,1.07-1.88,2.16-1.78l0.12,0.01
			c2.58,0.25,5.3,0.49,8.12,0.71c3.02,0.24,6.17,0.47,9.37,0.69c16.32,1.1,36.15,2.05,52.33,2.49c-3.81-12.05-7.6-24.1-11.32-36.01
			c-13.83-2.25-31.52-5.48-47.14-8.57c-3.37-0.67-6.4-1.28-9.05-1.82c-2.58-0.53-5.31-1.11-8.17-1.72l-0.09-0.02l-0.01,0
			c-1.07-0.23-1.74-1.28-1.51-2.35c0.23-1.06,1.29-1.74,2.35-1.51l0.02,0l0.07,0.02c2.26,0.49,5,1.06,8.15,1.71
			c3.14,0.65,6.17,1.26,9.02,1.82c14.75,2.92,31.47,5.98,45.06,8.22c-1.12-3.6-2.23-7.17-3.33-10.74
			c-14.65-2.39-34.65-6.57-51.41-10.08c-3.52-0.74-6.9-1.44-10.06-2.1l-0.02,0c-1.07-0.22-1.76-1.26-1.54-2.33
			c0.22-1.07,1.27-1.76,2.33-1.54l0.02,0c3.15,0.65,6.54,1.36,10.06,2.1c15.98,3.34,34.92,7.3,49.3,9.72
			c-4.12-13.34-8.12-26.41-11.92-39.05c-8.88-1.47-18.3-3.53-28.05-5.67c-6.36-1.39-12.85-2.82-19.42-4.12l-0.09-0.02l-0.02,0
			c-1.07-0.2-1.78-1.23-1.58-2.3c0.2-1.07,1.23-1.78,2.3-1.59l0.02,0c0.04,0.01,0.09,0.02,0.13,0.03c6.63,1.32,13.14,2.74,19.5,4.14
			c8.95,1.96,17.62,3.86,25.93,5.3c-3.77-12.55-7.33-24.62-10.63-36.04c-4.43-1.75-9.32-3.77-14.46-5.95
			c-5.11-2.16-10.5-4.5-15.93-6.86c-1-0.43-1.46-1.59-1.02-2.59c0.43-1,1.59-1.46,2.59-1.02
			C272.47,138.63,277.81,140.94,283.05,143.16z"/>
		<path class="st1" d="M595.51,330.08c40.04-20.16,79.92-43.34,96.01-56.53c-28.65-23.33-68.18-13.23-92.38-12.33
			c19.58-4.63,83.54-33.91,98.49-81.94c-44.94-13.63-101.72,35.92-122.83,52.65c13.63-16.51,89.76-102.86,82.69-143.82
			c-52.86,5.32-93.37,72.55-108.31,98.3c4.17-19.8,24.15-148.91-9.34-170.04c-31.71,15.88-38.25,137.02-34.26,182.39
			c-9.71-24.66-21.21-119.37-53.82-147.1c-19.36,35.25,0.95,117.18,0.95,117.18s-23.38-64.3-74.49-76.17
			c-10.55,44.06,58.64,126.17,68.76,138.48c-30.15-20.66-52.86-60.52-105.28-56.08c15.45,57.7,99.65,90,99.65,90
			s-65.26-24.82-107.54-7.18c11.05,23.18,47.34,48.87,87.8,72.19H595.51z"/>
		<path class="st2" d="M917.65,218.62l29.97,15.2l-22.04-31.18c0.87-2.07,3.89-10.77,6.18-16.45c10.26,7.12,22.64,17.03,22.64,17.03
			l-10.7-36.38c12.28-21.56,30.96-44.69,70.67-69.58c35.05,42.01,35.67,127.83,34.07,144.88l-29.74,15.05l29.36-4.72
			c0.03,13.38-0.69,26.04-0.37,39.5l-38.81,11.57l37.84-0.57l-0.46,12.14l-17.75,4.05l-9.26,3.79c-0.55,2.08-1.21,4.47-1.98,7.1
			H896.28C899.92,284.59,908.05,244.06,917.65,218.62L917.65,218.62z"/>
		<path class="st3" d="M907.18,330.08l-0.38-0.25c-2.48-1.67-4.71-3.19-6.65-4.52l0,0c-0.89-0.62-2.12-0.4-2.74,0.49
			c-0.62,0.89-0.4,2.12,0.49,2.75l0,0l0.01,0.01l0,0c0.73,0.5,1.47,1.01,2.22,1.52L907.18,330.08z M1018.03,144.25
			c-3.76,2-7.47,3.94-11.07,5.78c3.62-18.75,6.67-35.64,8.92-49.76c0.17-1.08-0.56-2.09-1.64-2.26c-1.08-0.17-2.09,0.56-2.26,1.64
			c-3.28,20.57-8.24,46.96-14.21,76.55c-9.46-7.53-20.31-16.73-30.79-25.62c-2.11-1.79-4.21-3.57-6.43-5.44
			c-0.04-0.04-0.08-0.08-0.13-0.12l0,0c-0.85-0.69-2.09-0.57-2.78,0.28c-0.69,0.85-0.57,2.09,0.28,2.78l0,0
			c0.03,0.02,0.06,0.04,0.08,0.07c2.01,1.71,4.21,3.56,6.42,5.44c11.09,9.41,22.6,19.17,32.47,26.96
			c-1.25,6.13-2.53,12.38-3.85,18.75c-9.68-7.68-20.98-17.06-31.52-26c-2.18-1.85-4.36-3.7-6.51-5.54c-2.09-1.78-4.16-3.56-6.18-5.3
			l0,0c-0.79-0.68-1.98-0.64-2.71,0.13c-0.75,0.79-0.73,2.04,0.06,2.79l0,0c0.04,0.04,0.07,0.07,0.12,0.1
			c1.95,1.68,4.01,3.44,6.16,5.28c2.1,1.79,4.28,3.65,6.53,5.55c11.14,9.44,23.12,19.39,33.16,27.3
			c-2.19,10.53-4.48,21.33-6.83,32.31c-11.97-9.48-26.93-21.79-39.32-32.34c-2.54-2.17-5.01-4.28-7.33-6.3
			c-2.27-1.97-4.41-3.85-6.37-5.59l0,0c-0.79-0.71-2-0.67-2.74,0.1c-0.75,0.79-0.73,2.04,0.06,2.79l0,0l0.05,0.05v0
			c1.91,1.7,4.06,3.59,6.4,5.62c2.28,1.98,4.76,4.11,7.37,6.33c12.95,11.03,28.71,23.99,40.96,33.64
			c-0.94,4.37-1.88,8.75-2.84,13.16c-0.07,0.18-0.11,0.38-0.12,0.57c-1.65,7.62-3.33,15.29-5.02,22.99
			c-14.04-8.31-32.62-19.76-47.31-29.22c-3.07-1.98-5.89-3.81-8.37-5.44c-2.52-1.66-4.85-3.23-6.94-4.67l0,0
			c-0.89-0.62-2.12-0.4-2.74,0.49c-0.62,0.89-0.4,2.12,0.49,2.75l0,0l0.01,0.01l0,0c1.99,1.37,4.36,2.96,7.01,4.71
			c2.69,1.78,5.51,3.61,8.4,5.47c15,9.65,34.24,21.5,48.56,29.95c-1.79,8.11-3.59,16.24-5.39,24.35
			c-14.02-8.3-32.54-19.72-47.19-29.15c-3.07-1.98-5.89-3.81-8.37-5.44c-2.52-1.66-4.85-3.23-6.94-4.67l0,0
			c-0.89-0.62-2.12-0.4-2.74,0.49c-0.62,0.89-0.4,2.12,0.49,2.75l0,0l0.01,0.01l0,0c1.99,1.37,4.36,2.96,7.01,4.71
			c2.69,1.78,5.51,3.61,8.4,5.47c14.95,9.62,34.12,21.43,48.43,29.87c-1.54,6.92-3.09,13.83-4.63,20.69l4.05,0l1.09-4.86
			c16.53-1.9,39.35-4.98,57.31-7.78c3.59-0.56,6.93-1.09,9.91-1.59c3.17-0.53,5.98-1.02,8.34-1.47l0.12-0.02
			c1.07-0.2,1.78-1.23,1.58-2.31c-0.2-1.07-1.23-1.78-2.31-1.58l-0.12,0.02c-2.54,0.47-5.31,0.96-8.26,1.46
			c-3.13,0.52-6.45,1.06-9.87,1.59c-17.52,2.72-39.53,5.71-55.8,7.6c1.82-8.14,3.65-16.32,5.46-24.51
			c16.45-1.9,36.84-4.68,53.41-7.3c3.36-0.53,6.48-1.04,9.32-1.52c3.04-0.52,5.76-1,8.1-1.44l0.12-0.02
			c1.07-0.2,1.78-1.23,1.58-2.31c-0.2-1.07-1.23-1.78-2.31-1.58l-0.12,0.02c-2.55,0.48-5.24,0.96-8.03,1.43
			c-2.99,0.51-6.1,1.02-9.27,1.52c-16.15,2.55-35.83,5.25-51.9,7.13c2.73-12.34,5.44-24.67,8.08-36.87
			c13.58-3.47,30.91-8.25,46.19-12.72c3.3-0.96,6.27-1.84,8.85-2.62c2.52-0.76,5.19-1.57,7.99-2.44l0.09-0.03l0.02,0
			c1.04-0.33,1.62-1.43,1.29-2.47c-0.33-1.04-1.43-1.62-2.47-1.29l-0.01,0l-0.07,0.02c-2.21,0.68-4.88,1.5-7.96,2.42
			c-3.07,0.92-6.03,1.8-8.82,2.61c-14.43,4.22-30.82,8.75-44.15,12.18c0.8-3.68,1.59-7.34,2.37-10.99
			c14.38-3.68,33.93-9.62,50.31-14.6c3.44-1.05,6.75-2.05,9.83-2.98l0.02,0c1.05-0.31,1.64-1.42,1.33-2.46
			c-0.31-1.05-1.42-1.64-2.46-1.32l-0.02,0c-3.08,0.93-6.39,1.93-9.83,2.98c-15.62,4.75-34.14,10.37-48.25,14.06
			c2.92-13.65,5.74-27.03,8.41-39.95c8.71-2.25,17.92-5.14,27.44-8.13c6.21-1.95,12.55-3.95,18.98-5.83l0.09-0.02l0.02-0.01
			c1.05-0.29,1.67-1.38,1.37-2.43c-0.29-1.05-1.38-1.67-2.43-1.37l-0.02,0.01c-0.04,0.01-0.09,0.03-0.13,0.04
			c-6.48,1.9-12.84,3.9-19.06,5.85c-8.74,2.75-17.21,5.41-25.36,7.58c2.64-12.83,5.12-25.17,7.39-36.84
			c4.25-2.14,8.94-4.59,13.87-7.21c4.9-2.61,10.06-5.41,15.26-8.25c0.96-0.52,1.31-1.72,0.79-2.67c-0.52-0.96-1.72-1.31-2.67-0.79
			C1028.16,138.8,1023.05,141.58,1018.03,144.25z"/>
		<path class="st5" d="M1028.29,330.08c15.75-6.91,64.44-14.63,61.25-36.07c-2.93-19.7-25.62-12.96-24.56-22.17
			c1.06-9.22,46.2-18.36,39.24-40.02c-6.97-21.67-25.73-4.28-32.8-16.35c-7.07-12.07,37.63-42.51,6.98-68.02
			c-30.65-25.51-39.31,48.41-47.58,37.03c-8.26-11.38-24.01-29.06-34.26-5.96c-10.26,23.1,12.96,64.24,1.62,66.44
			c-8.05,1.56-9.63-9.79-23.16-14.92c-13.53-5.13-16.96,17.29-9.22,37.67c4.92,21.34,7.19,38.27,1.76,62.39H1028.29z"/>
		<path class="st0" d="M1063.88,230.39c0.86-0.26,1.35-1.18,1.09-2.04c-0.26-0.85-1.16-1.34-2.01-1.09l0,0
			c-1.45,0.41-3.08,1.04-4.82,1.86c-1.72,0.8-3.55,1.78-5.43,2.89c-6.61,3.89-14.05,9.55-20.02,15.38
			c4.11-9.1,7.81-17.83,10.95-25.91c3.29-8.44,5.94-16.09,7.77-22.63v0l0,0c0.26-0.87-0.24-1.78-1.11-2.03
			c-0.87-0.26-1.78,0.24-2.03,1.11l0,0.02l0,0.01h0c-1.83,6.49-4.44,14.04-7.67,22.33c-3.08,7.92-6.76,16.59-10.88,25.71
			c0.3-13.54-3.71-25.46-6.08-32.51c-0.34-1-0.64-1.9-0.87-2.63c-0.28-0.86-1.2-1.33-2.06-1.06c-0.86,0.28-1.33,1.2-1.06,2.06
			c0.27,0.83,0.56,1.71,0.89,2.69c2.84,8.42,8.09,24.01,4.97,40.61c-6.61,14.11-14.07,28.96-21.88,43.54c0.12-2.67,0.09-5.35-0.06-8
			c-0.85-14.6-5.4-28.33-7.93-33.68c-0.39-0.82-1.36-1.17-2.18-0.78c-0.82,0.39-1.17,1.36-0.78,2.18c2.42,5.14,6.8,18.36,7.62,32.46
			c0.16,2.73,0.18,5.5,0.03,8.23c-0.14,2.46-0.41,4.89-0.85,7.25c-4.43,8.1-8.94,16.06-13.44,23.72h3.79
			c4.02-6.88,8.05-14,12.01-21.22c0.15-0.1,0.28-0.23,0.4-0.39c5.64-7.76,22.84-15.72,34.73-20.26c2.38-0.91,4.49-1.66,6.24-2.24
			c1.31-0.43,2.44-0.78,3.35-1.03c0.33-0.09,0.68-0.16,1.01-0.27c0.79-0.28,1.26-1.12,1.05-1.95c-0.22-0.86-1.08-1.39-1.94-1.2
			c-0.21,0.05-0.42,0.11-0.63,0.17c-1,0.27-2.32,0.67-3.87,1.18c-1.88,0.62-4.06,1.4-6.38,2.28c-8.98,3.43-20.94,8.8-29.09,14.72
			c7.57-14.16,14.81-28.54,21.26-42.26c0.11-0.09,0.2-0.19,0.29-0.31c5.75-7.9,16.78-16.99,26.11-22.49
			c1.81-1.07,3.54-1.99,5.14-2.74c1.58-0.74,3.04-1.3,4.33-1.67v0L1063.88,230.39L1063.88,230.39z"/>
		<path class="st4" d="M783.54,215.88c-0.77-7.79,4-6.89,11.83,0.1c7.84,6.99-4.87,10.91-6.74,9
			C786.76,223.08,786.12,221.22,783.54,215.88L783.54,215.88z M842.54,250.72c-3.83,1.48-9.74-3.79-7.52-9.05
			c2.22-5.26,13.72,1.38,13.72,1.38C850.57,247.07,846.37,249.25,842.54,250.72z M881.78,235.6c0.45,4.48-10.12,8.41-16.38,10.76
			c-6.26,2.35-10.55-0.75-10.53-6.08c0.02-5.33,20.02-10.09,21.25-10.8C878.94,230.01,881.34,231.12,881.78,235.6z M824.88,177.9
			c-1.91-0.52-4.16,0.44-3.97,3.62c0.15,2.59,5.46,13.84,7.95,12.7c1.56-0.71,3.11-1.95,3.82-3.55
			C833.92,187.91,827.82,178.71,824.88,177.9z M869.41,189.34c-9.82,14.59-35,7.39-19.79,0.47c6.01-2.73,13.22-1.69,17.58-7.38
			C871.61,180.74,870.83,187.23,869.41,189.34z M813.51,319.16c-0.35,3.22-0.72,6.91-1.08,10.92l-5.04,0
			c0.39-4.38,0.77-8.25,1.12-11.47c0.13-1.16,0.25-2.26,0.38-3.29c-30.07,35.13-153.97,4.69-95.66-82.78
			c-2.3,10.65,4.08,20.53,13.43,25.28c9.35,4.75,19.13,2.01,14.92-5.85c-4.21-7.86-23.26-23.4-17.68-43.18
			c5.58-19.77,36.6-41.9,36.6-41.9s-8.53,18.63,1.02,28c9.55,9.36,24.58,19.06,18.27-4.48c-6.31-23.54-19.18-29.68,0.2-48.11
			c19.38-18.43,36.61-20.99,36.61-20.99s-14.54,19.75-5.11,35.83c9.43,16.08,12.02,5.24,11.12-7.65
			c-0.89-12.89,3.63-24.76,14.45-32.96c5.95-4.51,27.28-18.54,30.74-20.02l0,0l0,0c2.31,2.97,14.2,25.57,17.22,32.39
			c5.5,12.4,3.72,24.99-3.29,35.84c-7.01,10.85-7.74,24.63,6.04,12.07c11.7-10.67,12.85-33.84,12.85-33.84s13.84,10.58,21.9,36.08
			c8.05,25.5-6.18,24.65-23.08,42.21c-16.91,17.56,0.94,16.33,13.82,12.75c12.89-3.58,14.43-24.01,14.43-24.01
			s16.46,34.37,11.78,54.38c-4.68,20.01-28.87,24.4-36.35,29.24c-7.49,4.84-0.25,11.97,10.23,12.33
			c10.48,0.36,20.85-5.2,23.98-15.64c1.39,16.6-1.6,29.73-7.44,39.75H821.4c-3.44-4.7-5.98-9.94-7.34-15.68
			C813.89,315.78,813.7,317.37,813.51,319.16z"/>
		<path class="st2" d="M697.75,310.14c31.86,3.98,52.95-15.09,55.1-50.46c2.15-35.37-22.91-56.88-8.06-72.19
			c14.85-15.31,30.94-28.47,9.58-60.08c-21.37-31.61-4.22-28.09-4.69-58.25c-0.47-30.16-38.54-30.62-36.18,4.77
			c2.36,35.4-6.55,34.35-18.66,43.46c-12.11,9.11-23.2,39.41-10.25,61.51c12.95,22.09-2.2,25.08-17.8,55.35
			C651.19,264.53,665.89,306.16,697.75,310.14L697.75,310.14z"/>
		<path class="st3" d="M741.9,157.46c0.75,0.03,1.4-0.53,1.46-1.29c0.06-0.77-0.51-1.45-1.28-1.52l-0.01,0l-0.06,0l0,0
			c-0.03,0-0.05,0-0.08,0c-0.34,0-0.65,0.13-0.89,0.34c-0.49,0.3-1.07,0.78-1.72,1.44c-0.88,0.89-2.07,2.19-3.47,3.78
			c-5.59,6.38-14.46,17.57-20.01,26.61c3.46-26.13,6.81-50.86,9.44-70.23l1.55-11.4c0.11-0.77-0.43-1.48-1.2-1.58
			c-0.77-0.11-1.48,0.43-1.58,1.2l-1.55,11.4c-2.6,19.19-5.92,43.64-9.34,69.51c-1.82-7.86-3.61-14.47-5.42-20.23
			c-2.38-7.61-4.8-13.75-7.31-19.31c-0.32-0.71-1.15-1.02-1.86-0.7c-0.71,0.32-1.02,1.15-0.7,1.86c2.46,5.44,4.83,11.46,7.18,18.99
			c2.33,7.44,4.65,16.34,7.02,27.55c-3.69,28.07-7.43,57.3-10.46,82.94c-0.17-0.64-0.33-1.27-0.5-1.89
			c-0.82-3.07-1.62-5.95-2.4-8.63c-4.15-14.24-8.39-25.29-12.36-32.09c-0.39-0.67-1.25-0.89-1.92-0.5c-0.67,0.39-0.89,1.25-0.5,1.92
			c3.85,6.58,7.99,17.42,12.08,31.46c0.82,2.81,1.62,5.67,2.39,8.57c0.79,2.96,1.56,5.96,2.3,8.98
			c-1.83,15.81-3.34,29.97-4.34,41.23l-0.01,0.06l0,0.01c-0.07,0.77,0.49,1.46,1.26,1.53c0.77,0.07,1.46-0.49,1.53-1.26l0-0.01
			c0-0.03,0.01-0.06,0.01-0.1c1-11.25,2.51-25.39,4.34-41.18c3.26-9.21,15.51-26.32,23.36-36.05c1.51-1.87,2.87-3.48,3.99-4.72
			c0.99-1.1,1.72-1.83,2.09-2.11l0.05-0.03l0.02-0.01c0.65-0.43,0.82-1.3,0.39-1.95c-0.43-0.65-1.3-0.82-1.95-0.39l-0.02,0.01
			c-0.04,0.02-0.07,0.05-0.11,0.08c-0.58,0.42-1.47,1.29-2.57,2.52c-1.1,1.22-2.49,2.87-4.08,4.84
			c-6.12,7.58-14.89,19.63-20.16,29.13c3-25.31,6.68-54.06,10.31-81.69c4.09-9.1,16.19-24.56,23.14-32.5
			c1.34-1.53,2.49-2.78,3.35-3.64C741.91,157.81,741.67,157.45,741.9,157.46L741.9,157.46z"/>
		<path class="st3" d="M787.21,174.78c-0.67-1.08-0.33-2.51,0.75-3.18c1.08-0.67,2.51-0.33,3.18,0.75
			c0.05,0.08,13.21,21.18,21.16,44.24c-1.33-62.98-24.92-108.16-25.02-108.36c-0.58-1.14-0.13-2.53,1.01-3.1
			c1.14-0.58,2.53-0.13,3.1,1.01c0.08,0.16,15.88,30.41,22.6,76c7.64-16.4,11.48-31.14,13.28-41.2c0.38-2.14,0.67-4.11,0.89-5.86
			c0.22-1.76,0.35-3.19,0.42-4.3c0.07-1.26,1.15-2.23,2.42-2.17c1.27,0.07,2.25,1.15,2.18,2.42v0.01l0,0.02
			c-0.08,1.29-0.22,2.84-0.43,4.58c-0.22,1.75-0.52,3.79-0.93,6.12c-2.07,11.63-6.8,29.32-16.72,48.65
			c1.42,12.09,2.15,25.11,1.78,38.84c0.34-0.38,0.68-0.77,1.02-1.16c1.71-1.96,3.49-4.04,5.29-6.17
			c9.23-10.95,19.06-23.52,20.91-27.6c0.53-1.16,1.9-1.68,3.06-1.15c1.16,0.53,1.68,1.9,1.15,3.06
			c-2.02,4.47-12.14,17.46-21.59,28.66c-1.84,2.18-3.64,4.28-5.34,6.23c-1.74,2-3.37,3.82-4.8,5.39
			c-1.41,25.68-3.16,32.87-11.07,60.01c-0.49,1.18-1.84,1.74-3.01,1.25c-1.18-0.49-1.74-1.84-1.25-3.01
			c3.38-11.63,5.75-20.21,7.43-28.76c-1.04-2.13-2.4-4.89-3.01-6.13c-6.34-12.84-13.91-26.89-16.91-30.21
			c-0.85-0.95-0.77-2.41,0.17-3.26c0.95-0.85,2.41-0.78,3.26,0.17c3.28,3.64,11.13,18.12,17.62,31.26l0.2,0.41
			c1.06-7.23,1.72-15.05,2.14-25.14C806.57,205.81,787.26,174.87,787.21,174.78L787.21,174.78z"/>
		<path class="st2" d="M781.9,159.4c5.16-1.47,10.54,1.53,12.01,6.69c1.47,5.16-1.52,10.54-6.69,12.01
			c-5.16,1.47-10.54-1.53-12.01-6.69C773.74,166.25,776.73,160.87,781.9,159.4L781.9,159.4z"/>
		<path class="st2" d="M781.75,95.88c5.16-1.47,10.54,1.52,12.01,6.69c1.47,5.16-1.52,10.54-6.69,12.01
			c-5.16,1.47-10.54-1.52-12.01-6.69C773.59,102.73,776.59,97.35,781.75,95.88L781.75,95.88z"/>
		<path class="st2" d="M830.83,120.57c5.16-1.47,10.54,1.53,12.02,6.69c1.47,5.16-1.53,10.54-6.69,12.01
			c-5.16,1.47-10.54-1.52-12.01-6.69C822.67,127.42,825.66,122.04,830.83,120.57L830.83,120.57z"/>
		<path class="st2" d="M846.07,181.47c5.16-1.47,10.54,1.52,12.02,6.69c1.47,5.16-1.53,10.54-6.69,12.01
			c-5.16,1.47-10.54-1.52-12.01-6.69C837.91,188.32,840.9,182.94,846.07,181.47L846.07,181.47z"/>
		<path class="st2" d="M786.05,217.23c5.16-1.47,10.54,1.52,12.01,6.69c1.47,5.16-1.52,10.54-6.69,12.01
			c-5.17,1.47-10.55-1.52-12.02-6.69C777.89,224.08,780.89,218.7,786.05,217.23L786.05,217.23z"/>
		<path class="st2" d="M1022.14,330.08c-3.93-2.67-5.91-5.37-4.12-7.83c3.49-4.79,14.36,0.9,24.41,7.83H1022.14z M1067.5,330.08
			c0.69-1.56,1.39-3.12,2.1-4.68c-7.99-2.21-48.93-14.06-42.59-22.76c6.3-8.65,36.73,16.9,42.85,22.19
			c1.98-4.38,4.01-8.77,6.07-13.16c-5.26-2.86-45.91-25.4-37.46-32.67c8.4-7.22,34.01,27.44,37.59,32.38
			c2.5-5.31,5.04-10.6,7.58-15.76c-5.22-3.5-43.66-29.71-34.58-36.13c8.99-6.35,31.39,30.2,34.74,35.8
			c2.98-6.05,5.96-11.93,8.87-17.51c-6.34-4.77-40.63-31.15-31.44-36.88c9.06-5.65,27.91,29.02,31.74,36.3
			c2.61-5.01,5.16-9.77,7.62-14.19l0.18-0.34c-5.97-5.68-36.8-35.74-27.06-40.35c9.57-4.52,24.27,31.57,27.43,39.68
			c3.17-5.69,6.17-10.8,8.88-15.1c-4.79-6.41-30.32-41.42-19.91-44.35c10.19-2.88,18.59,35.16,20.34,43.68
			c0.26-0.41,0.52-0.82,0.78-1.21c2.24-3.47,4.27-6.34,6.01-8.46c-1.66-6.84-11.71-50.08-0.82-48.72
			c10.55,1.31,3.11,39.75,1.38,48.06c0.5-0.58,0.98-1.11,1.43-1.56c0.04-0.04,0.07-0.07,0.11-0.1l0.01,0
			c0.29-0.28,0.67-0.41,1.05-0.4c4.47-9.87,20.98-44.64,28.28-37.44c7.2,7.12-19.08,31.02-27.14,38.03c0.31,0.4,0.38,0.93,0.21,1.39
			c9.49-3.98,46.1-18.67,46.55-8.31c0.45,10.7-39.3,9.64-47.36,9.32c-1.91,2.01-4.36,5.37-7.22,9.79l-0.4,0.62
			c9.19-1.11,50.1-5.49,47.62,4.8c-2.51,10.4-40.33-1.55-48.06-4.1c-2.74,4.33-5.81,9.54-9.08,15.4c8.38-1.23,46.1-6.19,46.71,4.38
			c0.62,10.76-39.38-1.31-47.08-3.73l-0.24,0.44c-2.34,4.21-4.78,8.75-7.26,13.51c9.03-1.01,44.7-4.32,44.92,6.08
			c0.22,10.58-37.05-2.26-45.36-5.25c-2.95,5.66-5.98,11.64-9.01,17.77c4.52-0.42,48.73-4.24,48.77,7.07
			c0.04,11.37-44.73-5.36-48.84-6.92c-2.52,5.13-5.05,10.37-7.53,15.65c7.25,0.09,49.59,1.1,48.63,11.96
			c-0.96,10.94-42.3-8.42-48.83-11.55c-2.12,4.51-4.21,9.04-6.26,13.55c3.81,0.42,48.73,5.56,46.47,16.74
			c-2.27,11.21-43.24-14.56-46.52-16.64c-0.55,1.22-1.09,2.43-1.63,3.64H1067.5z"/>
		<path class="st5" d="M761.32,330.08c12.94-2.98,24.14-7.17,31.15-12.91c-21.59-17.59-59.47-6.61-77.71-5.93
			c14.76-3.49,66.81-27.37,78.08-63.57c-39.01-6.71-75.64,29.39-91.55,42c10.27-12.44,70.86-81.4,65.53-112.29
			c-39.85,4.01-68.16,48.44-79.42,67.85c3.14-14.93,15.97-106.01-9.27-121.93c-23.9,11.97-28.83,103.29-25.83,137.5
			c-7.32-18.59-15.99-89.99-40.58-110.89c-14.6,26.57,0.71,88.33,0.71,88.33s-17.63-48.47-56.15-57.42
			c-7.95,33.21,52.2,94.8,59.84,104.09c-22.73-15.58-49.34-39.96-88.85-36.62c11.65,43.5,67.92,59.92,75.2,64.16
			c-4.31,0-47.79-20.38-79.66-7.08c5.53,11.6,22.44,19.68,44.04,24.72H761.32z"/>
		<path class="st5" d="M190.74,315.28c-16.38-15.08,8.26-11.7,10.67-16.76c2.41-5.05-27.68-28.28-36.04-47.16
			c-8.36-18.88,19.5,6.48,16.91-13.81c-2.59-20.29-22.08-40.75-16.38-57.88c5.7-17.13,44.77,25.83,48.44,23.05
			c3.67-2.77-3.25-22.3,6.48-26.49c9.73-4.19,35.56,56.8,39.93,49.63c4.36-7.17-0.22-33.5,16.5-9.71
			c15.04,21.39,31.8,84.65,28.93,113.95H214C203.38,324.55,194.87,319.08,190.74,315.28L190.74,315.28z"/>
		<path class="st0" d="M229.9,305.15c-0.96-0.21-1.58-1.15-1.37-2.12c0.21-0.96,1.15-1.58,2.12-1.37l33.7,7.21
			c-12.3-13.49-24.62-27.54-35.57-40.91l-30.17-9.75c-0.94-0.31-1.45-1.31-1.14-2.25c0.31-0.94,1.31-1.45,2.25-1.14l24.95,8.06
			c-13.09-16.31-23.79-31.35-29.45-42.8c-0.43-0.88-0.07-1.95,0.81-2.38c0.88-0.43,1.95-0.07,2.38,0.81
			c5.67,11.49,16.57,26.72,29.89,43.24l-1.66-32.02c-0.05-0.98,0.7-1.82,1.69-1.87c0.98-0.05,1.82,0.71,1.87,1.69l1.91,36.82
			l0.01,0.06c10.71,13.03,22.72,26.71,34.72,39.88l-5.29-37.78c-0.14-0.97,0.54-1.87,1.52-2.01c0.97-0.14,1.88,0.54,2.01,1.52
			l6.01,42.91c6.06,6.59,12.07,13.02,17.87,19.13l-4.91,0c-5.07-5.37-10.29-10.96-15.54-16.68L229.9,305.15z"/>
		<path class="st4" d="M521.79,330.08c5.63-12.15,6.92-27.36,10.22-49.04c6.39-41.99-10.48-59.38-17.88-53.34
			c-7.4,6.04-0.48,56.9-10.94,55.51c-10.47-1.39-7.81-27.97-2.23-55.74c5.58-27.77-3.4-47.33-13.61-47.05
			c-10.21,0.28,0,60.03-14.99,48.65c-14.99-11.38-7.76-71.66-28.63-74.02c-20.87-2.36,3.26,57.61-5.61,61.1
			c-8.86,3.49-35.34-70.43-54.08-63.08c-18.74,7.35,39.21,74.75,34.46,84.24c-4.74,9.48-43.39-39.29-51.46-27.8
			c-8.07,11.49,20.92,34.83,33.02,44.08c12.1,9.26,35.71,19.74,31.22,30.9c-4.49,11.15-53.8-40.26-59.78-29.09
			c-5.98,11.17,19.19,31.89,38.49,44.95c19.3,13.07,30.3,13.74,31.13,19.16c0.83,5.43-9.12,9.88-27.08,0.58
			c-17.96-9.31-22.87-23.28-32.28-18.53c-6.23,3.14,0.86,16.61,11.34,28.53H521.79z"/>
		<path class="st0" d="M486.42,330.08c-6.84-27.06-18.9-51.09-30.88-68.24c-0.41-0.59-1.23-0.74-1.82-0.33
			c-0.59,0.41-0.74,1.23-0.33,1.82c11.73,16.8,23.55,40.3,30.33,66.75L486.42,330.08z"/>
		<path class="st2" d="M615.14,330.08c-6.16-21.77-21.01-56.72-58.58-61.67c-49.02-6.46-72.64,47.2-41.63,61.67L615.14,330.08z"/>
		<path class="st7" d="M536.92,304.29c-0.75,0.25-1.57-0.16-1.82-0.91c-0.25-0.76,0.16-1.57,0.91-1.82
			c0.13-0.04,41.36-14.49,75.19,28.52l-3.69,0C575.23,290.86,537.05,304.25,536.92,304.29L536.92,304.29z"/>
		<path class="st1" d="M674.12,330.08c-0.02-0.38-0.04-0.77-0.05-1.15c-5.21,0.03-27.32-0.57-40.33-12.54
			c-14.62-13.44,12.37-26.13,40.27,10.91c-0.39-10.7-0.01-21.29,1-31.45c-5.05-0.23-22.51-1.76-32.55-11.81
			c-11.6-11.61,10.98-21.16,32.73,10.05c0.79-7.43,1.91-14.63,3.31-21.44c0.32-1.56,0.65-3.1,1-4.62
			c-3.54-0.13-18.11-1.15-26.4-9.41c-9.37-9.35,9.02-17.06,26.59,8.56c1.6-6.91,3.48-13.37,5.55-19.23
			c0.22-0.61,0.44-1.22,0.66-1.82c-4.11-0.67-15.25-3.09-21.2-10.38c-7.2-8.82,8.89-13.87,21.79,8.81
			c2.09-5.47,4.36-10.38,6.75-14.58c-2.87-1.21-13.53-6.14-17.65-14.23c-4.71-9.25,11.14-9.75,18.08,13.49
			c0.1-0.18,0.21-0.35,0.31-0.52l0,0c0.31-0.53,0.9-0.8,1.47-0.73c0.26-3.63,1.53-14,7.68-19.98c7.42-7.21,13.24,7.12-6.66,20.56
			c0.36,0.47,0.41,1.13,0.1,1.67l-0.01,0.01l-0.01,0.01l0,0l-0.1,0.17c20.72-12.14,32.17-1.27,22.47,2.32
			c-8.63,3.19-20.21-0.43-23-1.4c-2.28,4-4.46,8.68-6.48,13.92c23.65-10.76,33.71,2.71,22.72,5.65c-9.15,2.45-19.67-2.17-23.34-4.01
			c-0.25,0.67-0.5,1.35-0.74,2.04c-2.01,5.69-3.83,11.94-5.39,18.59c25.63-15.46,38.9-1.38,26.74,3.4
			c-10.16,3.99-22.83,0.02-27.16-1.58c-0.29,1.29-0.57,2.59-0.84,3.91c-1.37,6.72-2.48,13.82-3.26,21.14
			c29-23.87,48.01-8.8,33.82-0.7c-11.96,6.82-28.56,4.07-34.04,2.88c-0.94,9.67-1.32,19.74-0.98,29.9
			c31.41-33.27,56.59-17.92,40.72-6.14c-13.56,10.07-34.31,8.95-40.64,8.33c0.02,0.47,0.04,0.95,0.07,1.42H674.12z"/>
		<path class="st4" d="M234.2,329.09c-6.93,1.28-32.58,9.71-40.03,11.47c-17.07,4.02-20.68-6.49-11.63-12.09
			c-27.76,3.2-55.74,8.01-78.07-3.72c-10-5.25-16.3-21.3,0.92-21.39c-12.61-4.41-49.97-33.71-30.16-59.15
			c19.81-25.44,40.13,17.38,40.13,17.38c-2.76-15.25,12.48-11.74,19.82-5.52c10.55,8.94,11.7,21.33,26.26,33.35
			c1.96-17.18,18.47-14.47,25.54-2.72C194.92,299.92,206.83,317.21,234.2,329.09L234.2,329.09z"/>
		<path class="st0" d="M193.57,333.25c-0.47,0.13-0.96-0.14-1.1-0.62c-0.13-0.47,0.14-0.96,0.62-1.1c1.09-0.31,2.29-0.76,3.69-1.29
			c3.24-1.23,7.45-2.83,13.27-3.82c-2.14-0.4-4.31-0.83-6.49-1.28c-7.51-1.56-15.23-3.45-22.95-5.71c-0.02,0-0.04,0-0.05,0
			c-14.81,0.84-29.87-1.17-43.86-4.71c-2.73-0.69-5.41-1.44-8.03-2.23c-2.56-0.77-5.12-1.61-7.67-2.5c-0.02,0-0.04-0.01-0.06-0.02
			l-0.01,0c-0.46-0.16-0.71-0.66-0.55-1.13c0.16-0.46,0.66-0.71,1.13-0.55l0.01,0c0.02,0.01,0.04,0.01,0.06,0.02
			c2.44,0.85,4.97,1.68,7.6,2.47c2.61,0.79,5.26,1.53,7.95,2.21c12.23,3.09,25.28,5.01,38.24,4.84
			c-13.23-4.17-26.31-9.48-38.13-16.15c-0.04-0.01-0.07-0.01-0.11-0.02c-8.15-2.39-14.14-4.25-19.53-6.16
			c-5.4-1.92-10.2-3.89-15.98-6.51c-0.45-0.2-0.64-0.73-0.44-1.18c0.2-0.45,0.73-0.64,1.18-0.44c5.73,2.6,10.49,4.56,15.83,6.46
			c3.8,1.35,7.91,2.68,12.89,4.18c-11.71-7.39-21.9-16.29-29.38-26.96c-0.28-0.4-0.18-0.96,0.22-1.24c0.4-0.28,0.96-0.18,1.24,0.22
			c7.63,10.89,18.15,19.91,30.26,27.36c-0.93-1.18-1.83-2.35-2.69-3.5c-4.75-6.38-8.45-12.44-10.46-16.98
			c-0.2-0.45,0-0.97,0.45-1.17c0.45-0.2,0.97,0,1.17,0.45c1.97,4.43,5.59,10.37,10.26,16.64c0.92,1.23,1.87,2.47,2.84,3.7
			c0.92,1.16,1.88,2.32,2.86,3.49c11.18,6.34,23.51,11.44,36.05,15.51c-2.57-1.71-5.7-3.92-9.02-6.57
			c-7.16-5.72-15.23-13.52-20.68-22.85c-0.25-0.42-0.1-0.97,0.32-1.21c0.42-0.25,0.97-0.1,1.21,0.32
			c5.32,9.1,13.23,16.74,20.26,22.36c6.64,5.31,12.49,8.8,14.62,10.03c7.83,2.31,15.68,4.23,23.31,5.82c0.48,0.1,0.97,0.2,1.45,0.3
			c-6.83-3.16-15.71-8.21-20.72-16.31c-0.26-0.42-0.13-0.96,0.29-1.22c0.42-0.26,0.96-0.13,1.22,0.29
			c6.13,9.93,18.61,15.16,25.09,17.87c0.71,0.28,1.42,0.59,2.12,0.9c3.97,0.7,7.86,1.32,11.63,1.85c6.55,0.93,12.72,1.6,18.31,2.07
			c0.59,0.05,1.32,0.16,1.25,0.99c-0.06,0.74-0.69,0.84-1.26,0.79c-5.69-0.47-11.94-1.15-18.55-2.09c-2.94-0.42-5.75-0.85-8.82-1.37
			c-0.66-0.11-0.84,0.09-1.39,0.14c-7.92,0.79-13.25,2.81-17.14,4.29C195.95,332.46,194.68,332.94,193.57,333.25L193.57,333.25z"/>
		<path class="st2" d="M734.76,328.76c6.84,1.68,31.97,11.57,39.31,13.75c16.81,4.99,21.02-5.29,12.31-11.4
			c27.53,4.79,55.19,11.21,78.16,0.78c10.29-4.67,17.5-20.32,0.31-21.41c12.85-3.68,51.83-30.78,33.52-57.32
			c-18.31-26.54-41.06,15.04-41.06,15.04c3.63-15.07-11.78-12.44-19.47-6.65c-11.05,8.32-12.91,20.62-28.14,31.79
			c-0.97-17.27-17.61-15.51-25.34-4.19C775.65,301.9,762.77,318.48,734.76,328.76L734.76,328.76z"/>
		<path class="st3" d="M775.08,335.26c0.46,0.16,0.97-0.09,1.13-0.55c0.16-0.46-0.09-0.97-0.55-1.13c-1.07-0.37-2.25-0.9-3.61-1.5
			c-3.16-1.41-7.27-3.25-13.03-4.58c2.16-0.28,4.35-0.58,6.55-0.91c7.59-1.13,15.41-2.57,23.24-4.38c0.02,0,0.03,0.01,0.05,0.01
			c14.74,1.69,29.89,0.55,44.06-2.18c2.76-0.53,5.48-1.12,8.15-1.76c2.6-0.63,5.21-1.31,7.8-2.05c0.02,0,0.04-0.01,0.06-0.01l0.01,0
			c0.47-0.13,0.75-0.62,0.62-1.1c-0.13-0.47-0.62-0.75-1.1-0.62l-0.01,0c-0.02,0.01-0.04,0.01-0.06,0.02
			c-2.48,0.71-5.06,1.39-7.73,2.03c-2.65,0.64-5.34,1.22-8.06,1.74c-12.39,2.39-25.52,3.54-38.45,2.63
			c13.45-3.4,26.81-7.95,39-13.93c0.04,0,0.07-0.01,0.11-0.02c8.28-1.92,14.36-3.43,19.85-5.03c5.51-1.6,10.41-3.3,16.33-5.58
			c0.46-0.18,0.68-0.69,0.51-1.15c-0.18-0.46-0.69-0.68-1.15-0.51c-5.87,2.26-10.73,3.95-16.18,5.53
			c-3.88,1.13-8.06,2.22-13.11,3.43c12.12-6.71,22.8-15,30.88-25.23c0.3-0.39,0.24-0.94-0.15-1.25c-0.39-0.3-0.94-0.24-1.25,0.15
			c-8.24,10.43-19.27,18.83-31.79,25.57c1-1.12,1.96-2.24,2.89-3.34c5.11-6.09,9.15-11.93,11.42-16.35c0.22-0.44,0.05-0.97-0.39-1.2
			c-0.44-0.22-0.97-0.05-1.2,0.38c-2.22,4.31-6.18,10.03-11.2,16.02c-0.99,1.18-2.01,2.35-3.05,3.53c-0.99,1.1-2.01,2.21-3.06,3.32
			c-11.53,5.68-24.13,10.06-36.89,13.4c2.67-1.56,5.92-3.58,9.39-6.04c7.48-5.3,15.98-12.62,21.96-21.63
			c0.27-0.41,0.16-0.96-0.25-1.23c-0.41-0.27-0.96-0.16-1.23,0.25c-5.83,8.78-14.17,15.96-21.51,21.16
			c-6.93,4.92-12.97,8.07-15.17,9.17c-7.95,1.85-15.9,3.32-23.61,4.47c-0.49,0.07-0.98,0.15-1.46,0.22
			c7-2.76,16.16-7.29,21.62-15.09c0.28-0.4,0.19-0.96-0.22-1.24c-0.4-0.28-0.96-0.19-1.24,0.22c-6.69,9.56-19.45,14.06-26.08,16.39
			c-0.73,0.23-1.45,0.51-2.16,0.77c-4.01,0.47-7.92,0.87-11.71,1.18c-6.6,0.55-12.79,0.87-18.4,1.01c-0.6,0.01-1.32,0.08-1.31,0.92
			c0.02,0.74,0.65,0.88,1.21,0.86c5.71-0.14,11.99-0.47,18.64-1.02c2.96-0.25,5.79-0.51,8.89-0.86c0.66-0.07,0.83,0.14,1.38,0.22
			c7.86,1.24,13.06,3.57,16.86,5.27C772.75,334.33,773.99,334.88,775.08,335.26L775.08,335.26z"/>
		<path class="st0" d="M892.56,623.37c-1.29-2.06-2.84-4.89-4.68-8.26c-1.79-3.28-3.86-7.05-6.25-11.16
			c9.9,6.68,26.13,8.69,35.86,5.65c-2.59-5.58-23.7-23.2-38.53-10.13c-4.94-8.1-11.1-17.13-18.84-25.97
			c20.71,13.52,36.32,4.85,43.83,1.24c-10.91-13.35-35.31-15.39-47.21-4.98c-5.88-6.29-12.6-12.39-20.29-17.89
			c12.78,4.38,28.57,0.88,37.65-7.08c-0.26-0.22-0.53-0.44-0.8-0.66h-40.11c-1.25,0.92-2.51,1.94-3.77,3.06
			c-1.71-1.05-3.47-2.08-5.26-3.06h-7.33c3.71,1.79,7.25,3.73,10.61,5.8c-15.84,22.64-5.19,37.72,1.62,44.85
			c9.49-12.59,9.93-31.06,0.56-43.47c9.4,6.06,17.43,13.09,24.31,20.39c-15.05,15.63-9.12,40.12-6.36,44.65
			c10.05-9.92,17.71-23.58,12.16-38.12c7.25,8.64,13.02,17.37,17.64,25.11c-20.27,12.05-9.26,33.59-4.83,37.7
			c6.58-9.69,10.08-23.09,6.55-34.77c2.22,3.83,4.16,7.36,5.84,10.44c1.69,3.09,3.13,5.73,4.41,7.82
			c-7.04,20.76,13.83,30.65,19.69,31.21C911.37,637.08,904.67,629.11,892.56,623.37z"/>
	</g>
</g>
</svg>
